SplineFontDB: 3.0
FontName: Iceberg-Regular
FullName: Iceberg
FamilyName: Iceberg
Weight: Book
Copyright: Copyright (c) 2011, Cyreal (www.cyreal.org)\nwith Reserved Font Name "Iceberg".\n\nThis Font Software is licensed under the SIL Open Font License,\nVersion 1.1. This license is available with a FAQ at:\nhttp://scripts.sil.org/OFL
Version: 1.001
ItalicAngle: 0
UnderlinePosition: -130
UnderlineWidth: 20
Ascent: 800
Descent: 200
sfntRevision: 0x00010042
LayerCount: 2
Layer: 0 1 "Back"  1
Layer: 1 1 "Fore"  0
XUID: [1021 10 1477161328 1442574]
FSType: 0
OS2Version: 3
OS2_WeightWidthSlopeOnly: 0
OS2_UseTypoMetrics: 1
CreationTime: 1323981660
ModificationTime: 1323983299
PfmFamily: 17
TTFWeight: 400
TTFWidth: 5
LineGap: 0
VLineGap: 0
Panose: 2 0 4 0 0 0 0 0 0 0
OS2TypoAscent: -42
OS2TypoAOffset: 1
OS2TypoDescent: -30
OS2TypoDOffset: 1
OS2TypoLinegap: 0
OS2WinAscent: 0
OS2WinAOffset: 1
OS2WinDescent: -45
OS2WinDOffset: 1
HheadAscent: 0
HheadAOffset: 1
HheadDescent: 45
HheadDOffset: 1
OS2SubXSize: 700
OS2SubYSize: 650
OS2SubXOff: 0
OS2SubYOff: 143
OS2SupXSize: 700
OS2SupYSize: 650
OS2SupXOff: 0
OS2SupYOff: 453
OS2StrikeYSize: 50
OS2StrikeYPos: 259
OS2Vendor: 'MACR'
OS2CodePages: 00000001.00000000
OS2UnicodeRanges: 80000023.10000043.00000000.00000000
DEI: 91125
TtTable: prep
PUSHW_1
 511
SCANCTRL
PUSHB_1
 4
SCANTYPE
EndTTInstrs
TtTable: fpgm
PUSHW_1
 0
FDEF
MPPEM
PUSHW_1
 9
LT
IF
PUSHB_2
 1
 1
INSTCTRL
EIF
PUSHW_1
 511
SCANCTRL
PUSHW_1
 68
SCVTCI
PUSHW_2
 9
 3
SDS
SDB
ENDF
PUSHW_1
 1
FDEF
DUP
DUP
RCVT
ROUND[Black]
WCVTP
PUSHB_1
 1
ADD
ENDF
PUSHW_1
 2
FDEF
PUSHW_1
 1
LOOPCALL
POP
ENDF
PUSHW_1
 3
FDEF
DUP
GC[cur]
PUSHB_1
 3
CINDEX
GC[cur]
GT
IF
SWAP
EIF
DUP
ROLL
DUP
ROLL
MD[grid]
ABS
ROLL
DUP
GC[cur]
DUP
ROUND[Grey]
SUB
ABS
PUSHB_1
 4
CINDEX
GC[cur]
DUP
ROUND[Grey]
SUB
ABS
GT
IF
SWAP
NEG
ROLL
EIF
MDAP[rnd]
DUP
PUSHB_1
 0
GTEQ
IF
ROUND[Black]
DUP
PUSHB_1
 0
EQ
IF
POP
PUSHB_1
 64
EIF
ELSE
ROUND[Black]
DUP
PUSHB_1
 0
EQ
IF
POP
PUSHB_1
 64
NEG
EIF
EIF
MSIRP[no-rp0]
ENDF

StartChar: .notdef
Encoding: 65536 -1 0
Width: 965
Flags: W
LayerCount: 2
Fore
SplineSet
662 158 m 1,0,1
 664 158 664 158 668.5 163 c 128,-1,2
 673 168 673 168 677.5 173.5 c 128,-1,3
 682 179 682 179 685.5 184.5 c 128,-1,4
 689 190 689 190 689 192 c 1,5,6
 677 203 677 203 652.5 223.5 c 128,-1,7
 628 244 628 244 599 270 c 1,8,9
 623 302 623 302 642.5 327.5 c 128,-1,10
 662 353 662 353 672 367 c 1,11,12
 666 372 666 372 655.5 380 c 128,-1,13
 645 388 645 388 635 393 c 1,14,-1
 561 300 l 1,15,16
 531 324 531 324 504.5 343.5 c 128,-1,17
 478 363 478 363 464 373 c 1,18,19
 459 367 459 367 451 356.5 c 128,-1,20
 443 346 443 346 438 334 c 1,21,-1
 529 262 l 1,22,-1
 457 169 l 1,23,24
 457 167 457 167 462 162 c 128,-1,25
 467 157 467 157 472.5 152.5 c 128,-1,26
 478 148 478 148 483.5 145 c 128,-1,27
 489 142 489 142 491 142 c 1,28,-1
 569 230 l 1,29,-1
 662 158 l 1,0,1
881 471 m 1,30,-1
 880 472 l 1,31,32
 880 435 880 435 871.5 388 c 128,-1,33
 863 341 863 341 837.5 289 c 128,-1,34
 812 237 812 237 765 182 c 128,-1,35
 718 127 718 127 639 73 c 1,36,37
 639 68 639 68 635.5 58.5 c 128,-1,38
 632 49 632 49 621 49 c 1,39,-1
 609 37 l 1,40,41
 632 29 632 29 656.5 19.5 c 128,-1,42
 681 10 681 10 704 -1 c 1,43,44
 709 -1 709 -1 714 -0.5 c 128,-1,45
 719 0 719 0 725 0 c 0,46,47
 739 0 739 0 754.5 -3.5 c 128,-1,48
 770 -7 770 -7 787 -19 c 1,49,50
 787 -23 787 -23 786 -23.5 c 128,-1,51
 785 -24 785 -24 783 -26 c 1,52,53
 769 -19 769 -19 756.5 -15 c 128,-1,54
 744 -11 744 -11 725 -13 c 1,55,56
 735 -18 735 -18 744.5 -24.5 c 128,-1,57
 754 -31 754 -31 762 -43 c 1,58,59
 760 -48 760 -48 753 -49 c 1,60,61
 739 -35 739 -35 723.5 -25.5 c 128,-1,62
 708 -16 708 -16 689 -17 c 0,63,64
 681 -17 681 -17 675 -18 c 128,-1,65
 669 -19 669 -19 664 -20.5 c 128,-1,66
 659 -22 659 -22 653 -24.5 c 128,-1,67
 647 -27 647 -27 638 -31 c 1,68,69
 636 -29 636 -29 634.5 -29.5 c 128,-1,70
 633 -30 633 -30 632 -25 c 1,71,72
 642 -14 642 -14 651 -11.5 c 128,-1,73
 660 -9 660 -9 675 -4 c 1,74,75
 659 5 659 5 643.5 11 c 128,-1,76
 628 17 628 17 615.5 21 c 128,-1,77
 603 25 603 25 595.5 28 c 128,-1,78
 588 31 588 31 588 34 c 0,79,80
 588 40 588 40 599 49 c 1,81,82
 591 49 591 49 586 57 c 128,-1,83
 581 65 581 65 580 68 c 1,84,-1
 553 68 l 2,85,86
 539 68 539 68 525.5 69 c 128,-1,87
 512 70 512 70 498 72 c 1,88,89
 496 66 496 66 489.5 56.5 c 128,-1,90
 483 47 483 47 471 49 c 1,91,92
 459 42 459 42 456 39 c 1,93,94
 476 26 476 26 497.5 12.5 c 128,-1,95
 519 -1 519 -1 540 -18 c 1,96,97
 548 -20 548 -20 557 -21 c 128,-1,98
 566 -22 566 -22 575.5 -25 c 128,-1,99
 585 -28 585 -28 594 -33.5 c 128,-1,100
 603 -39 603 -39 612 -51 c 1,101,102
 612 -55 612 -55 610.5 -55.5 c 128,-1,103
 609 -56 609 -56 607 -58 c 1,104,105
 595 -47 595 -47 586.5 -42.5 c 128,-1,106
 578 -38 578 -38 558 -35 c 1,107,108
 577 -47 577 -47 585 -74 c 1,109,110
 583 -79 583 -79 577 -78 c 1,111,112
 567 -62 567 -62 554.5 -48.5 c 128,-1,113
 542 -35 542 -35 524 -31 c 0,114,115
 519 -30 519 -30 514 -29.5 c 128,-1,116
 509 -29 509 -29 504 -29 c 0,117,118
 492 -29 492 -29 479.5 -31 c 128,-1,119
 467 -33 467 -33 454 -36 c 1,120,121
 451 -32 451 -32 451 -28 c 1,122,123
 463 -20 463 -20 477.5 -18.5 c 128,-1,124
 492 -17 492 -17 508 -16 c 1,125,126
 495 -6 495 -6 482 3 c 128,-1,127
 469 12 469 12 458 19 c 128,-1,128
 447 26 447 26 440 31.5 c 128,-1,129
 433 37 433 37 433 41 c 0,130,131
 433 46 433 46 436.5 48 c 128,-1,132
 440 50 440 50 446 55 c 1,133,134
 439 62 439 62 438.5 71.5 c 128,-1,135
 438 81 438 81 439 87 c 1,136,137
 395 111 395 111 361.5 141 c 128,-1,138
 328 171 328 171 302 202 c 128,-1,139
 276 233 276 233 257.5 262.5 c 128,-1,140
 239 292 239 292 225 315 c 1,141,142
 171 333 171 333 121 351.5 c 128,-1,143
 71 370 71 370 39 396 c 0,144,145
 32 402 32 402 33.5 410 c 128,-1,146
 35 418 35 418 45 418 c 2,147,-1
 301 396 l 1,148,149
 386 413 386 413 445.5 424 c 128,-1,150
 505 435 505 435 544 444.5 c 128,-1,151
 583 454 583 454 605 464.5 c 128,-1,152
 627 475 627 475 638 491 c 1,153,154
 668 545 668 545 699.5 567 c 128,-1,155
 731 589 731 589 774 589 c 0,156,157
 788 589 788 589 799.5 587 c 128,-1,158
 811 585 811 585 821 582 c 1,159,-1
 821 583 l 1,160,-1
 895 609 l 2,161,162
 898 609 898 609 898 607 c 2,163,-1
 898 606 l 1,164,-1
 873 537 l 1,165,-1
 943 540 l 2,166,167
 946 540 946 540 945 537 c 1,168,-1
 881 471 l 1,30,-1
EndSplineSet
EndChar

StartChar: exclam
Encoding: 33 33 4
Width: 250
Flags: W
LayerCount: 2
Fore
SplineSet
170 219 m 1,0,-1
 90 140 l 1,1,-1
 90 560 l 1,2,-1
 170 560 l 1,3,-1
 170 219 l 1,0,-1
170 0 m 1,4,-1
 80 0 l 1,5,-1
 80 90 l 1,6,-1
 170 90 l 1,7,-1
 170 0 l 1,4,-1
EndSplineSet
EndChar

StartChar: numbersign
Encoding: 35 35 6
Width: 520
Flags: W
LayerCount: 2
Fore
SplineSet
511 410 m 1,0,-1
 439 340 l 1,1,-1
 409 340 l 1,2,-1
 382 220 l 1,3,-1
 472 220 l 1,4,-1
 400 150 l 1,5,-1
 366 150 l 1,6,-1
 357 108 l 1,7,-1
 289 60 l 1,8,-1
 306 150 l 1,9,-1
 170 150 l 1,10,-1
 161 108 l 1,11,-1
 93 60 l 1,12,-1
 110 150 l 1,13,-1
 20 150 l 1,14,-1
 92 220 l 1,15,-1
 122 220 l 1,16,-1
 154 340 l 1,17,-1
 59 340 l 1,18,-1
 131 410 l 1,19,-1
 166 410 l 1,20,-1
 173 454 l 1,21,-1
 243 500 l 1,22,-1
 226 410 l 1,23,-1
 361 410 l 1,24,-1
 368 454 l 1,25,-1
 438 500 l 1,26,-1
 421 410 l 1,27,-1
 511 410 l 1,0,-1
349 340 m 1,28,-1
 209 340 l 1,29,-1
 182 220 l 1,30,-1
 322 220 l 1,31,-1
 349 340 l 1,28,-1
EndSplineSet
EndChar

StartChar: dollar
Encoding: 36 36 7
Width: 490
Flags: W
LayerCount: 2
Fore
SplineSet
440 490 m 1,0,-1
 280 490 l 1,1,-1
 280 350 l 1,2,-1
 360 350 l 1,3,-1
 430 280 l 1,4,-1
 430 70 l 1,5,-1
 360 0 l 1,6,-1
 280 0 l 1,7,-1
 280 -20 l 1,8,-1
 220 -80 l 1,9,-1
 220 0 l 1,10,-1
 119 0 l 1,11,-1
 50 70 l 1,12,-1
 220 70 l 1,13,-1
 220 280 l 1,14,-1
 140 280 l 1,15,-1
 70 350 l 1,16,-1
 70 490 l 1,17,-1
 140 560 l 1,18,-1
 220 560 l 1,19,-1
 220 580 l 1,20,-1
 280 640 l 1,21,-1
 280 560 l 1,22,-1
 370 560 l 1,23,-1
 440 490 l 1,0,-1
220 350 m 1,24,-1
 220 490 l 1,25,-1
 150 490 l 1,26,-1
 150 350 l 1,27,-1
 220 350 l 1,24,-1
350 70 m 1,28,-1
 350 280 l 1,29,-1
 280 280 l 1,30,-1
 280 70 l 1,31,-1
 350 70 l 1,28,-1
EndSplineSet
EndChar

StartChar: percent
Encoding: 37 37 8
Width: 700
Flags: W
LayerCount: 2
Fore
SplineSet
640 70 m 1,0,-1
 570 0 l 1,1,-1
 500 0 l 1,2,-1
 430 70 l 1,3,-1
 430 280 l 1,4,-1
 500 350 l 1,5,-1
 570 350 l 1,6,-1
 640 280 l 1,7,-1
 640 70 l 1,0,-1
509 630 m 1,8,-1
 263 0 l 1,9,-1
 199 0 l 1,10,-1
 448 630 l 1,11,-1
 509 630 l 1,8,-1
270 350 m 1,12,-1
 199 280 l 1,13,-1
 130 280 l 1,14,-1
 60 350 l 1,15,-1
 60 560 l 1,16,-1
 130 630 l 1,17,-1
 199 630 l 1,18,-1
 270 560 l 1,19,-1
 270 350 l 1,12,-1
570 70 m 1,20,-1
 570 280 l 1,21,-1
 500 280 l 1,22,-1
 500 70 l 1,23,-1
 570 70 l 1,20,-1
200 350 m 1,24,-1
 200 560 l 1,25,-1
 130 560 l 1,26,-1
 130 350 l 1,27,-1
 200 350 l 1,24,-1
EndSplineSet
EndChar

StartChar: ampersand
Encoding: 38 38 9
Width: 480
Flags: W
LayerCount: 2
Fore
SplineSet
490 280 m 1,0,-1
 420 208 l 1,1,-1
 341 208 l 1,2,-1
 490 0 l 1,3,-1
 390 0 l 1,4,-1
 350 60 l 1,5,-1
 290 0 l 1,6,-1
 140 0 l 1,7,-1
 70 70 l 1,8,-1
 70 206 l 1,9,-1
 142 280 l 1,10,-1
 199 280 l 1,11,-1
 110 390 l 1,12,-1
 110 490 l 1,13,-1
 180 560 l 1,14,-1
 280 560 l 1,15,-1
 350 490 l 1,16,-1
 350 430 l 1,17,-1
 270 350 l 1,18,-1
 270 490 l 1,19,-1
 190 490 l 1,20,-1
 190 420 l 1,21,-1
 290 280 l 1,22,-1
 490 280 l 1,0,-1
343 70 m 1,23,-1
 250 208 l 1,24,-1
 150 208 l 1,25,-1
 150 70 l 1,26,-1
 343 70 l 1,23,-1
EndSplineSet
EndChar

StartChar: quotesingle
Encoding: 39 39 10
Width: 230
Flags: W
LayerCount: 2
Fore
SplineSet
160 469 m 1,0,-1
 80 390 l 1,1,-1
 80 630 l 1,2,-1
 160 630 l 1,3,-1
 160 469 l 1,0,-1
EndSplineSet
EndChar

StartChar: parenleft
Encoding: 40 40 11
Width: 280
Flags: W
LayerCount: 2
Fore
SplineSet
230 -70 m 1,0,-1
 160 -70 l 1,1,-1
 90 0 l 1,2,-1
 90 560 l 1,3,-1
 160 630 l 1,4,-1
 230 630 l 1,5,-1
 230 560 l 1,6,-1
 170 560 l 1,7,-1
 170 0 l 1,8,-1
 230 0 l 1,9,-1
 230 -70 l 1,0,-1
EndSplineSet
EndChar

StartChar: parenright
Encoding: 41 41 12
Width: 280
Flags: W
LayerCount: 2
Fore
SplineSet
50 0 m 1,0,-1
 110 0 l 1,1,-1
 110 560 l 1,2,-1
 50 560 l 1,3,-1
 50 630 l 1,4,-1
 120 630 l 1,5,-1
 190 560 l 1,6,-1
 190 0 l 1,7,-1
 120 -70 l 1,8,-1
 50 -70 l 1,9,-1
 50 0 l 1,0,-1
EndSplineSet
EndChar

StartChar: asterisk
Encoding: 42 42 13
Width: 504
Flags: W
LayerCount: 2
Fore
SplineSet
416 587 m 1,0,-1
 352 523 l 1,1,-1
 352 608 l 1,2,-1
 416 673 l 1,3,-1
 416 587 l 1,0,-1
220 587 m 1,4,-1
 136 587 l 1,5,-1
 72 651 l 1,6,-1
 157 651 l 1,7,-1
 220 587 l 1,4,-1
449 491 m 1,8,-1
 389 431 l 1,9,-1
 252 431 l 1,10,-1
 252 295 l 1,11,-1
 192 355 l 1,12,-1
 192 491 l 1,13,-1
 55 491 l 1,14,-1
 115 551 l 1,15,-1
 252 551 l 1,16,-1
 252 689 l 1,17,-1
 312 629 l 1,18,-1
 312 491 l 1,19,-1
 449 491 l 1,8,-1
442 329 m 1,20,-1
 357 329 l 1,21,-1
 293 393 l 1,22,-1
 380 393 l 1,23,-1
 442 329 l 1,20,-1
152 460 m 1,24,-1
 152 372 l 1,25,-1
 88 312 l 1,26,-1
 88 398 l 1,27,-1
 152 460 l 1,24,-1
300 491 m 1,28,-1
 252 539 l 1,29,-1
 252 542 l 1,30,-1
 203 494 l 1,31,-1
 252 445 l 1,32,-1
 252 444 l 1,33,-1
 299 491 l 1,34,-1
 300 491 l 1,28,-1
EndSplineSet
EndChar

StartChar: plus
Encoding: 43 43 14
Width: 400
Flags: W
LayerCount: 2
Fore
SplineSet
365 210 m 1,0,-1
 235 210 l 1,1,-1
 235 80 l 1,2,-1
 165 80 l 1,3,-1
 165 210 l 1,4,-1
 35 210 l 1,5,-1
 35 280 l 1,6,-1
 165 280 l 1,7,-1
 165 410 l 1,8,-1
 235 410 l 1,9,-1
 235 280 l 1,10,-1
 365 280 l 1,11,-1
 365 210 l 1,0,-1
EndSplineSet
EndChar

StartChar: comma
Encoding: 44 44 15
Width: 260
Flags: W
LayerCount: 2
Fore
SplineSet
190 -84 m 1,0,-1
 120 -150 l 1,1,-1
 120 0 l 1,2,-1
 70 0 l 1,3,-1
 70 90 l 1,4,-1
 130 90 l 1,5,-1
 190 30 l 1,6,-1
 190 -84 l 1,0,-1
EndSplineSet
EndChar

StartChar: hyphen
Encoding: 45 45 16
Width: 270
Flags: W
LayerCount: 2
Fore
SplineSet
255 280 m 1,0,-1
 185 210 l 1,1,-1
 15 210 l 1,2,-1
 85 280 l 1,3,-1
 255 280 l 1,0,-1
EndSplineSet
EndChar

StartChar: period
Encoding: 46 46 17
Width: 250
Flags: W
LayerCount: 2
Fore
SplineSet
170 0 m 1,0,-1
 80 0 l 1,1,-1
 80 90 l 1,2,-1
 170 90 l 1,3,-1
 170 0 l 1,0,-1
EndSplineSet
EndChar

StartChar: slash
Encoding: 47 47 18
Width: 310
Flags: W
LayerCount: 2
Fore
SplineSet
330 630 m 1,0,-1
 54 -70 l 1,1,-1
 -20 -70 l 1,2,-1
 259 630 l 1,3,-1
 330 630 l 1,0,-1
EndSplineSet
EndChar

StartChar: zero
Encoding: 48 48 19
Width: 400
Flags: W
LayerCount: 2
Fore
SplineSet
340 70 m 1,0,-1
 270 0 l 1,1,-1
 130 0 l 1,2,-1
 60 70 l 1,3,-1
 60 490 l 1,4,-1
 130 560 l 1,5,-1
 270 560 l 1,6,-1
 340 490 l 1,7,-1
 340 70 l 1,0,-1
260 70 m 1,8,-1
 260 490 l 1,9,-1
 140 490 l 1,10,-1
 140 70 l 1,11,-1
 260 70 l 1,8,-1
EndSplineSet
EndChar

StartChar: one
Encoding: 49 49 20
Width: 400
Flags: W
LayerCount: 2
Fore
SplineSet
345 0 m 1,0,-1
 65 0 l 1,1,-1
 65 70 l 1,2,-1
 195 70 l 1,3,-1
 195 475 l 1,4,-1
 185 475 l 1,5,-1
 95 385 l 1,6,-1
 45 436 l 1,7,-1
 169 560 l 1,8,-1
 275 560 l 1,9,-1
 275 70 l 1,10,-1
 345 70 l 1,11,-1
 345 0 l 1,0,-1
EndSplineSet
EndChar

StartChar: two
Encoding: 50 50 21
Width: 400
Flags: W
LayerCount: 2
Fore
SplineSet
330 293 m 1,0,-1
 115 80 l 1,1,-1
 115 70 l 1,2,-1
 325 70 l 1,3,-1
 325 0 l 1,4,-1
 45 0 l 1,5,-1
 45 109 l 1,6,-1
 250 312 l 1,7,-1
 250 490 l 1,8,-1
 125 490 l 1,9,-1
 125 350 l 1,10,-1
 45 350 l 1,11,-1
 45 490 l 1,12,-1
 114 560 l 1,13,-1
 261 560 l 1,14,-1
 330 490 l 1,15,-1
 330 293 l 1,0,-1
EndSplineSet
EndChar

StartChar: three
Encoding: 51 51 22
Width: 400
Flags: W
LayerCount: 2
Fore
SplineSet
325 70 m 1,0,-1
 256 0 l 1,1,-1
 109 0 l 1,2,-1
 40 70 l 1,3,-1
 40 140 l 1,4,-1
 120 140 l 1,5,-1
 120 70 l 1,6,-1
 245 70 l 1,7,-1
 245 280 l 1,8,-1
 113 280 l 1,9,-1
 113 338 l 1,10,-1
 255 480 l 1,11,-1
 255 490 l 1,12,-1
 40 490 l 1,13,-1
 40 560 l 1,14,-1
 325 560 l 1,15,-1
 325 470 l 1,16,-1
 204 350 l 1,17,-1
 204 340 l 1,18,-1
 255 340 l 1,19,-1
 325 270 l 1,20,-1
 325 70 l 1,0,-1
EndSplineSet
EndChar

StartChar: four
Encoding: 52 52 23
Width: 400
Flags: W
LayerCount: 2
Fore
SplineSet
330 0 m 1,0,-1
 250 0 l 1,1,-1
 250 140 l 1,2,-1
 45 140 l 1,3,-1
 45 376 l 1,4,-1
 228 560 l 1,5,-1
 322 560 l 1,6,-1
 120 359 l 1,7,-1
 120 210 l 1,8,-1
 250 210 l 1,9,-1
 250 380 l 1,10,-1
 330 460 l 1,11,-1
 330 0 l 1,0,-1
EndSplineSet
EndChar

StartChar: five
Encoding: 53 53 24
Width: 400
Flags: W
LayerCount: 2
Fore
SplineSet
340 70 m 1,0,-1
 270 0 l 1,1,-1
 130 0 l 1,2,-1
 60 70 l 1,3,-1
 60 140 l 1,4,-1
 140 140 l 1,5,-1
 140 70 l 1,6,-1
 260 70 l 1,7,-1
 260 280 l 1,8,-1
 60 280 l 1,9,-1
 60 560 l 1,10,-1
 340 560 l 1,11,-1
 340 490 l 1,12,-1
 130 490 l 1,13,-1
 130 350 l 1,14,-1
 270 350 l 1,15,-1
 340 280 l 1,16,-1
 340 70 l 1,0,-1
EndSplineSet
EndChar

StartChar: six
Encoding: 54 54 25
Width: 400
Flags: W
LayerCount: 2
Fore
SplineSet
350 70 m 1,0,-1
 280 0 l 1,1,-1
 130 0 l 1,2,-1
 60 70 l 1,3,-1
 60 490 l 1,4,-1
 130 560 l 1,5,-1
 340 560 l 1,6,-1
 340 490 l 1,7,-1
 140 490 l 1,8,-1
 140 350 l 1,9,-1
 280 350 l 1,10,-1
 350 280 l 1,11,-1
 350 70 l 1,0,-1
270 70 m 1,12,-1
 270 280 l 1,13,-1
 140 280 l 1,14,-1
 140 70 l 1,15,-1
 270 70 l 1,12,-1
EndSplineSet
EndChar

StartChar: seven
Encoding: 55 55 26
Width: 400
Flags: W
LayerCount: 2
Fore
SplineSet
335 269 m 1,0,-1
 210 145 l 1,1,-1
 210 0 l 1,2,-1
 130 0 l 1,3,-1
 130 167 l 1,4,-1
 255 293 l 1,5,-1
 255 490 l 1,6,-1
 125 490 l 1,7,-1
 125 350 l 1,8,-1
 45 350 l 1,9,-1
 45 560 l 1,10,-1
 335 560 l 1,11,-1
 335 269 l 1,0,-1
EndSplineSet
EndChar

StartChar: eight
Encoding: 56 56 27
Width: 400
Flags: W
LayerCount: 2
Fore
SplineSet
350 70 m 1,0,-1
 280 0 l 1,1,-1
 120 0 l 1,2,-1
 50 70 l 1,3,-1
 50 277 l 1,4,-1
 104 330 l 1,5,-1
 63 380 l 1,6,-1
 63 497 l 1,7,-1
 123 560 l 1,8,-1
 277 560 l 1,9,-1
 337 500 l 1,10,-1
 337 380 l 1,11,-1
 296 329 l 1,12,-1
 350 275 l 1,13,-1
 350 70 l 1,0,-1
257 340 m 1,14,-1
 257 491 l 1,15,-1
 143 489 l 1,16,-1
 143 340 l 1,17,-1
 257 340 l 1,14,-1
270 70 m 1,18,-1
 270 280 l 1,19,-1
 130 280 l 1,20,-1
 130 70 l 1,21,-1
 270 70 l 1,18,-1
EndSplineSet
EndChar

StartChar: nine
Encoding: 57 57 28
Width: 400
Flags: W
LayerCount: 2
Fore
SplineSet
50 490 m 1,0,-1
 120 560 l 1,1,-1
 270 560 l 1,2,-1
 340 490 l 1,3,-1
 340 70 l 1,4,-1
 270 0 l 1,5,-1
 60 0 l 1,6,-1
 60 70 l 1,7,-1
 260 70 l 1,8,-1
 260 210 l 1,9,-1
 120 210 l 1,10,-1
 50 280 l 1,11,-1
 50 490 l 1,0,-1
130 490 m 1,12,-1
 130 280 l 1,13,-1
 260 280 l 1,14,-1
 260 490 l 1,15,-1
 130 490 l 1,12,-1
EndSplineSet
EndChar

StartChar: less
Encoding: 60 60 31
Width: 400
Flags: W
LayerCount: 2
Fore
SplineSet
350 101 m 1,0,-1
 301 52 l 1,1,-1
 50 253 l 1,2,-1
 301 463 l 1,3,-1
 350 414 l 1,4,-1
 150 253 l 1,5,-1
 350 101 l 1,0,-1
EndSplineSet
EndChar

StartChar: equal
Encoding: 61 61 32
Width: 400
Flags: W
LayerCount: 2
Fore
SplineSet
365 281 m 1,0,-1
 35 281 l 1,1,-1
 35 350 l 1,2,-1
 365 350 l 1,3,-1
 365 281 l 1,0,-1
365 140 m 1,4,-1
 35 140 l 1,5,-1
 35 209 l 1,6,-1
 365 209 l 1,7,-1
 365 140 l 1,4,-1
EndSplineSet
EndChar

StartChar: greater
Encoding: 62 62 33
Width: 400
Flags: W
LayerCount: 2
Fore
SplineSet
250 253 m 1,0,-1
 50 414 l 1,1,-1
 99 463 l 1,2,-1
 350 253 l 1,3,-1
 99 52 l 1,4,-1
 50 101 l 1,5,-1
 250 253 l 1,0,-1
EndSplineSet
EndChar

StartChar: question
Encoding: 63 63 34
Width: 380
Flags: W
LayerCount: 2
Fore
SplineSet
320 290 m 1,0,-1
 170 140 l 1,1,-1
 170 230 l 1,2,-1
 240 300 l 1,3,-1
 240 490 l 1,4,-1
 120 490 l 1,5,-1
 120 350 l 1,6,-1
 40 350 l 1,7,-1
 40 490 l 1,8,-1
 110 560 l 1,9,-1
 250 560 l 1,10,-1
 320 490 l 1,11,-1
 320 290 l 1,0,-1
230 0 m 1,12,-1
 140 0 l 1,13,-1
 140 90 l 1,14,-1
 230 90 l 1,15,-1
 230 0 l 1,12,-1
EndSplineSet
EndChar

StartChar: at
Encoding: 64 64 35
Width: 750
Flags: W
LayerCount: 2
Fore
SplineSet
670 70 m 1,0,-1
 600 0 l 1,1,-1
 477 0 l 1,2,-1
 423 54 l 1,3,-1
 370 0 l 1,4,-1
 278 0 l 1,5,-1
 221 57 l 1,6,-1
 244 210 l 1,7,-1
 313 280 l 1,8,-1
 421 280 l 1,9,-1
 359 220 l 1,10,-1
 324 220 l 1,11,-1
 291 70 l 1,12,-1
 387 70 l 1,13,-1
 436 350 l 1,14,-1
 246 350 l 1,15,-1
 318 420 l 1,16,-1
 458 420 l 1,17,-1
 515 363 l 1,18,-1
 462 70 l 1,19,-1
 590 70 l 1,20,-1
 590 560 l 1,21,-1
 160 560 l 1,22,-1
 160 -140 l 1,23,-1
 659 -140 l 1,24,-1
 588 -210 l 1,25,-1
 160 -210 l 1,26,-1
 80 -130 l 1,27,-1
 80 560 l 1,28,-1
 150 630 l 1,29,-1
 600 630 l 1,30,-1
 670 560 l 1,31,-1
 670 70 l 1,0,-1
EndSplineSet
EndChar

StartChar: A
Encoding: 65 65 36
Width: 505
Flags: W
LayerCount: 2
Fore
SplineSet
425 0 m 1,0,-1
 345 0 l 1,1,-1
 345 210 l 1,2,-1
 155 210 l 1,3,-1
 155 0 l 1,4,-1
 75 0 l 1,5,-1
 75 490 l 1,6,-1
 145 560 l 1,7,-1
 425 560 l 1,8,-1
 425 0 l 1,0,-1
395 490 m 1,9,-1
 155 490 l 1,10,-1
 155 220 l 1,11,-1
 215 280 l 1,12,-1
 345 280 l 1,13,-1
 345 439 l 1,14,-1
 395 490 l 1,9,-1
EndSplineSet
EndChar

StartChar: B
Encoding: 66 66 37
Width: 485
Flags: W
LayerCount: 2
Fore
SplineSet
430 70 m 1,0,-1
 360 0 l 1,1,-1
 80 0 l 1,2,-1
 80 420 l 1,3,-1
 150 490 l 1,4,-1
 70 490 l 1,5,-1
 70 560 l 1,6,-1
 300 560 l 1,7,-1
 370 490 l 1,8,-1
 370 390 l 1,9,-1
 320 340 l 1,10,-1
 370 340 l 1,11,-1
 430 280 l 1,12,-1
 430 70 l 1,0,-1
290 340 m 1,13,-1
 290 490 l 1,14,-1
 160 490 l 1,15,-1
 160 280 l 1,16,-1
 220 340 l 1,17,-1
 290 340 l 1,13,-1
350 70 m 1,18,-1
 350 280 l 1,19,-1
 160 280 l 1,20,-1
 160 70 l 1,21,-1
 350 70 l 1,18,-1
EndSplineSet
EndChar

StartChar: C
Encoding: 67 67 38
Width: 450
Flags: W
LayerCount: 2
Fore
SplineSet
410 70 m 1,0,-1
 340 0 l 1,1,-1
 140 0 l 1,2,-1
 70 70 l 1,3,-1
 70 490 l 1,4,-1
 140 560 l 1,5,-1
 340 560 l 1,6,-1
 410 490 l 1,7,-1
 410 431 l 1,8,-1
 330 350 l 1,9,-1
 330 490 l 1,10,-1
 150 490 l 1,11,-1
 150 70 l 1,12,-1
 330 70 l 1,13,-1
 330 130 l 1,14,-1
 410 210 l 1,15,-1
 410 70 l 1,0,-1
EndSplineSet
EndChar

StartChar: D
Encoding: 68 68 39
Width: 500
Flags: W
LayerCount: 2
Fore
SplineSet
430 70 m 1,0,-1
 360 0 l 1,1,-1
 80 0 l 1,2,-1
 80 420 l 1,3,-1
 150 490 l 1,4,-1
 70 490 l 1,5,-1
 70 560 l 1,6,-1
 360 560 l 1,7,-1
 430 490 l 1,8,-1
 430 70 l 1,0,-1
350 70 m 1,9,-1
 350 490 l 1,10,-1
 160 490 l 1,11,-1
 160 10 l 1,12,-1
 220 70 l 1,13,-1
 350 70 l 1,9,-1
EndSplineSet
EndChar

StartChar: E
Encoding: 69 69 40
Width: 400
Flags: W
LayerCount: 2
Fore
SplineSet
360 0 m 1,0,-1
 80 0 l 1,1,-1
 80 420 l 1,2,-1
 150 490 l 1,3,-1
 70 490 l 1,4,-1
 70 560 l 1,5,-1
 360 560 l 1,6,-1
 360 490 l 1,7,-1
 160 490 l 1,8,-1
 160 290 l 1,9,-1
 220 350 l 1,10,-1
 360 350 l 1,11,-1
 360 280 l 1,12,-1
 160 280 l 1,13,-1
 160 70 l 1,14,-1
 360 70 l 1,15,-1
 360 0 l 1,0,-1
EndSplineSet
EndChar

StartChar: F
Encoding: 70 70 41
Width: 385
Flags: W
LayerCount: 2
Fore
SplineSet
360 210 m 1,0,-1
 160 210 l 1,1,-1
 160 0 l 1,2,-1
 80 0 l 1,3,-1
 80 420 l 1,4,-1
 150 490 l 1,5,-1
 70 490 l 1,6,-1
 70 560 l 1,7,-1
 360 560 l 1,8,-1
 360 490 l 1,9,-1
 160 490 l 1,10,-1
 160 220 l 1,11,-1
 220 280 l 1,12,-1
 360 280 l 1,13,-1
 360 210 l 1,0,-1
EndSplineSet
EndChar

StartChar: G
Encoding: 71 71 42
Width: 485
Flags: W
LayerCount: 2
Fore
SplineSet
440 490 m 1,0,-1
 150 490 l 1,1,-1
 150 70 l 1,2,-1
 340 70 l 1,3,-1
 340 280 l 1,4,-1
 210 280 l 1,5,-1
 280 350 l 1,6,-1
 420 350 l 1,7,-1
 420 0 l 1,8,-1
 340 0 l 1,9,-1
 340 60 l 1,10,-1
 280 0 l 1,11,-1
 140 0 l 1,12,-1
 70 70 l 1,13,-1
 70 490 l 1,14,-1
 140 560 l 1,15,-1
 369 560 l 1,16,-1
 440 490 l 1,0,-1
EndSplineSet
EndChar

StartChar: H
Encoding: 72 72 43
Width: 510
Flags: W
LayerCount: 2
Fore
SplineSet
430 0 m 1,0,-1
 350 0 l 1,1,-1
 350 280 l 1,2,-1
 160 280 l 1,3,-1
 160 0 l 1,4,-1
 80 0 l 1,5,-1
 80 560 l 1,6,-1
 160 560 l 1,7,-1
 160 290 l 1,8,-1
 220 350 l 1,9,-1
 350 350 l 1,10,-1
 350 560 l 1,11,-1
 430 560 l 1,12,-1
 430 0 l 1,0,-1
EndSplineSet
EndChar

StartChar: I
Encoding: 73 73 44
Width: 240
Flags: W
LayerCount: 2
Fore
SplineSet
160 0 m 1,0,-1
 80 0 l 1,1,-1
 80 560 l 1,2,-1
 160 560 l 1,3,-1
 160 0 l 1,0,-1
EndSplineSet
EndChar

StartChar: J
Encoding: 74 74 45
Width: 415
Flags: W
LayerCount: 2
Fore
SplineSet
340 70 m 1,0,-1
 270 0 l 1,1,-1
 110 0 l 1,2,-1
 40 70 l 1,3,-1
 40 138 l 1,4,-1
 120 217 l 1,5,-1
 120 70 l 1,6,-1
 260 70 l 1,7,-1
 260 490 l 1,8,-1
 50 490 l 1,9,-1
 50 560 l 1,10,-1
 340 560 l 1,11,-1
 340 70 l 1,0,-1
EndSplineSet
EndChar

StartChar: K
Encoding: 75 75 46
Width: 500
Flags: W
LayerCount: 2
Fore
SplineSet
430 0 m 1,0,-1
 350 0 l 1,1,-1
 350 280 l 1,2,-1
 160 280 l 1,3,-1
 160 0 l 1,4,-1
 80 0 l 1,5,-1
 80 560 l 1,6,-1
 160 560 l 1,7,-1
 160 293 l 1,8,-1
 340 469 l 1,9,-1
 340 560 l 1,10,-1
 420 560 l 1,11,-1
 419 461 l 1,12,-1
 309 353 l 1,13,-1
 309 343 l 1,14,-1
 360 343 l 1,15,-1
 430 273 l 1,16,-1
 430 0 l 1,0,-1
EndSplineSet
EndChar

StartChar: L
Encoding: 76 76 47
Width: 445
Flags: W
LayerCount: 2
Fore
SplineSet
420 0 m 1,0,-1
 80 0 l 1,1,-1
 80 560 l 1,2,-1
 160 560 l 1,3,-1
 160 70 l 1,4,-1
 340 70 l 1,5,-1
 340 140 l 1,6,-1
 420 220 l 1,7,-1
 420 0 l 1,0,-1
EndSplineSet
EndChar

StartChar: M
Encoding: 77 77 48
Width: 620
Flags: W
LayerCount: 2
Fore
SplineSet
540 1 m 1,0,-1
 460 1 l 1,1,-1
 460 439 l 1,2,-1
 510 489 l 1,3,-1
 445 489 l 1,4,-1
 337 280 l 1,5,-1
 279 280 l 1,6,-1
 175 489 l 1,7,-1
 110 489 l 1,8,-1
 160 439 l 1,9,-1
 160 1 l 1,10,-1
 80 1 l 1,11,-1
 80 560 l 1,12,-1
 223 560 l 1,13,-1
 307 376 l 1,14,-1
 317 376 l 1,15,-1
 401 560 l 1,16,-1
 540 560 l 1,17,-1
 540 1 l 1,0,-1
EndSplineSet
EndChar

StartChar: N
Encoding: 78 78 49
Width: 550
Flags: W
LayerCount: 2
Fore
SplineSet
470 1 m 1,0,-1
 315 1 l 1,1,-1
 179 489 l 1,2,-1
 110 489 l 1,3,-1
 160 441 l 1,4,-1
 160 1 l 1,5,-1
 80 1 l 1,6,-1
 80 561 l 1,7,-1
 236 561 l 1,8,-1
 370 71 l 1,9,-1
 440 71 l 1,10,-1
 390 122 l 1,11,-1
 390 561 l 1,12,-1
 470 561 l 1,13,-1
 470 1 l 1,0,-1
EndSplineSet
EndChar

StartChar: O
Encoding: 79 79 50
Width: 490
Flags: W
LayerCount: 2
Fore
SplineSet
420 70 m 1,0,-1
 350 0 l 1,1,-1
 140 0 l 1,2,-1
 70 70 l 1,3,-1
 70 490 l 1,4,-1
 140 560 l 1,5,-1
 350 560 l 1,6,-1
 420 490 l 1,7,-1
 420 70 l 1,0,-1
340 70 m 1,8,-1
 340 490 l 1,9,-1
 150 490 l 1,10,-1
 150 70 l 1,11,-1
 340 70 l 1,8,-1
EndSplineSet
EndChar

StartChar: P
Encoding: 80 80 51
Width: 475
Flags: W
LayerCount: 2
Fore
SplineSet
430 280 m 1,0,-1
 360 210 l 1,1,-1
 160 210 l 1,2,-1
 160 0 l 1,3,-1
 80 0 l 1,4,-1
 80 420 l 1,5,-1
 150 490 l 1,6,-1
 70 490 l 1,7,-1
 70 560 l 1,8,-1
 360 560 l 1,9,-1
 430 490 l 1,10,-1
 430 280 l 1,0,-1
350 280 m 1,11,-1
 350 490 l 1,12,-1
 160 490 l 1,13,-1
 160 220 l 1,14,-1
 220 280 l 1,15,-1
 350 280 l 1,11,-1
EndSplineSet
EndChar

StartChar: Q
Encoding: 81 81 52
Width: 490
Flags: W
LayerCount: 2
Fore
SplineSet
420 70 m 1,0,-1
 349 0 l 1,1,-1
 280 0 l 1,2,-1
 280 -148 l 1,3,-1
 210 -80 l 1,4,-1
 210 0 l 1,5,-1
 140 0 l 1,6,-1
 70 70 l 1,7,-1
 70 490 l 1,8,-1
 140 560 l 1,9,-1
 350 560 l 1,10,-1
 420 490 l 1,11,-1
 420 70 l 1,0,-1
340 70 m 1,12,-1
 340 490 l 1,13,-1
 150 490 l 1,14,-1
 150 70 l 1,15,-1
 209 70 l 1,16,-1
 280 141 l 1,17,-1
 280 70 l 1,18,-1
 340 70 l 1,12,-1
EndSplineSet
EndChar

StartChar: R
Encoding: 82 82 53
Width: 490
Flags: W
LayerCount: 2
Fore
SplineSet
430 0 m 1,0,-1
 350 0 l 1,1,-1
 352 57 l 1,2,-1
 191 218 l 1,3,-1
 246 280 l 1,4,-1
 350 280 l 1,5,-1
 350 490 l 1,6,-1
 160 490 l 1,7,-1
 160 0 l 1,8,-1
 80 0 l 1,9,-1
 80 420 l 1,10,-1
 150 490 l 1,11,-1
 70 490 l 1,12,-1
 70 560 l 1,13,-1
 360 560 l 1,14,-1
 430 490 l 1,15,-1
 430 290 l 1,16,-1
 360 220 l 1,17,-1
 294 220 l 1,18,-1
 294 209 l 1,19,-1
 430 75 l 1,20,-1
 430 0 l 1,0,-1
EndSplineSet
EndChar

StartChar: S
Encoding: 83 83 54
Width: 450
Flags: W
LayerCount: 2
Fore
SplineSet
410 490 m 1,0,-1
 135 490 l 1,1,-1
 135 350 l 1,2,-1
 320 350 l 1,3,-1
 390 280 l 1,4,-1
 390 70 l 1,5,-1
 320 0 l 1,6,-1
 125 0 l 1,7,-1
 55 70 l 1,8,-1
 55 126 l 1,9,-1
 135 203 l 1,10,-1
 135 70 l 1,11,-1
 310 70 l 1,12,-1
 310 280 l 1,13,-1
 125 280 l 1,14,-1
 55 350 l 1,15,-1
 55 490 l 1,16,-1
 125 560 l 1,17,-1
 340 560 l 1,18,-1
 410 490 l 1,0,-1
EndSplineSet
EndChar

StartChar: T
Encoding: 84 84 55
Width: 330
Flags: W
LayerCount: 2
Fore
SplineSet
330 490 m 1,0,-1
 205 490 l 1,1,-1
 205 0 l 1,2,-1
 125 0 l 1,3,-1
 125 490 l 1,4,-1
 0 490 l 1,5,-1
 0 560 l 1,6,-1
 330 560 l 1,7,-1
 330 490 l 1,0,-1
EndSplineSet
EndChar

StartChar: U
Encoding: 85 85 56
Width: 505
Flags: W
LayerCount: 2
Fore
SplineSet
425 0 m 1,0,-1
 345 0 l 1,1,-1
 345 60 l 1,2,-1
 285 0 l 1,3,-1
 145 0 l 1,4,-1
 75 70 l 1,5,-1
 75 560 l 1,6,-1
 155 560 l 1,7,-1
 155 70 l 1,8,-1
 345 70 l 1,9,-1
 345 560 l 1,10,-1
 425 560 l 1,11,-1
 425 0 l 1,0,-1
EndSplineSet
EndChar

StartChar: V
Encoding: 86 86 57
Width: 460
Flags: W
LayerCount: 2
Fore
SplineSet
405 180 m 1,0,-1
 273 0 l 1,1,-1
 183 0 l 1,2,-1
 55 180 l 1,3,-1
 55 560 l 1,4,-1
 137 560 l 1,5,-1
 137 194 l 1,6,-1
 220 68 l 1,7,-1
 240 68 l 1,8,-1
 325 194 l 1,9,-1
 325 560 l 1,10,-1
 405 560 l 1,11,-1
 405 180 l 1,0,-1
EndSplineSet
EndChar

StartChar: W
Encoding: 87 87 58
Width: 700
Flags: W
LayerCount: 2
Fore
SplineSet
640 121 m 1,0,-1
 521 0 l 1,1,-1
 442 0 l 1,2,-1
 350 94 l 1,3,-1
 258 0 l 1,4,-1
 179 0 l 1,5,-1
 60 121 l 1,6,-1
 60 560 l 1,7,-1
 140 560 l 1,8,-1
 140 143 l 1,9,-1
 213 68 l 1,10,-1
 235 68 l 1,11,-1
 310 143 l 1,12,-1
 310 560 l 1,13,-1
 390 560 l 1,14,-1
 390 143 l 1,15,-1
 464 68 l 1,16,-1
 487 68 l 1,17,-1
 560 141 l 1,18,-1
 560 560 l 1,19,-1
 640 560 l 1,20,-1
 640 121 l 1,0,-1
EndSplineSet
EndChar

StartChar: X
Encoding: 88 88 59
Width: 440
Flags: W
LayerCount: 2
Fore
SplineSet
395 0 m 1,0,-1
 315 0 l 1,1,-1
 315 135 l 1,2,-1
 222 270 l 1,3,-1
 212 270 l 1,4,-1
 125 135 l 1,5,-1
 125 0 l 1,6,-1
 45 0 l 1,7,-1
 45 155 l 1,8,-1
 166 325 l 1,9,-1
 45 487 l 1,10,-1
 45 560 l 1,11,-1
 125 560 l 1,12,-1
 125 504 l 1,13,-1
 219 371 l 1,14,-1
 229 371 l 1,15,-1
 315 504 l 1,16,-1
 315 560 l 1,17,-1
 395 560 l 1,18,-1
 395 487 l 1,19,-1
 276 325 l 1,20,-1
 394 155 l 1,21,-1
 395 0 l 1,0,-1
EndSplineSet
EndChar

StartChar: Y
Encoding: 89 89 60
Width: 460
Flags: W
LayerCount: 2
Fore
SplineSet
405 280 m 1,0,-1
 335 210 l 1,1,-1
 270 210 l 1,2,-1
 270 0 l 1,3,-1
 190 0 l 1,4,-1
 190 210 l 1,5,-1
 125 210 l 1,6,-1
 55 280 l 1,7,-1
 55 560 l 1,8,-1
 135 560 l 1,9,-1
 135 280 l 1,10,-1
 325 280 l 1,11,-1
 325 560 l 1,12,-1
 405 560 l 1,13,-1
 405 280 l 1,0,-1
EndSplineSet
EndChar

StartChar: Z
Encoding: 90 90 61
Width: 410
Flags: W
LayerCount: 2
Fore
SplineSet
365 0 m 1,0,-1
 45 0 l 1,1,-1
 45 175 l 1,2,-1
 285 414 l 1,3,-1
 285 489 l 1,4,-1
 45 490 l 1,5,-1
 45 560 l 1,6,-1
 365 559 l 1,7,-1
 365 386 l 1,8,-1
 125 145 l 1,9,-1
 125 70 l 1,10,-1
 365 70 l 1,11,-1
 365 0 l 1,0,-1
EndSplineSet
EndChar

StartChar: bracketleft
Encoding: 91 91 62
Width: 290
Flags: W
LayerCount: 2
Fore
SplineSet
240 -70 m 1,0,-1
 100 -70 l 1,1,-1
 100 630 l 1,2,-1
 240 630 l 1,3,-1
 240 560 l 1,4,-1
 180 560 l 1,5,-1
 180 0 l 1,6,-1
 240 0 l 1,7,-1
 240 -70 l 1,0,-1
EndSplineSet
EndChar

StartChar: backslash
Encoding: 92 92 63
Width: 310
Flags: W
LayerCount: 2
Fore
SplineSet
51 630 m 1,0,-1
 330 -70 l 1,1,-1
 256 -70 l 1,2,-1
 -20 630 l 1,3,-1
 51 630 l 1,0,-1
EndSplineSet
EndChar

StartChar: bracketright
Encoding: 93 93 64
Width: 290
Flags: W
LayerCount: 2
Fore
SplineSet
50 0 m 1,0,-1
 110 0 l 1,1,-1
 110 560 l 1,2,-1
 50 560 l 1,3,-1
 50 630 l 1,4,-1
 190 630 l 1,5,-1
 190 -70 l 1,6,-1
 50 -70 l 1,7,-1
 50 0 l 1,0,-1
EndSplineSet
EndChar

StartChar: asciicircum
Encoding: 94 94 65
Width: 460
Flags: W
LayerCount: 2
Fore
SplineSet
436 452 m 1,0,-1
 386 402 l 1,1,-1
 225 603 l 1,2,-1
 73 402 l 1,3,-1
 24 452 l 1,4,-1
 225 702 l 1,5,-1
 436 452 l 1,0,-1
EndSplineSet
EndChar

StartChar: underscore
Encoding: 95 95 66
Width: 400
Flags: W
LayerCount: 2
Fore
SplineSet
405 -140 m 1,0,-1
 -5 -140 l 1,1,-1
 -5 -70 l 1,2,-1
 405 -70 l 1,3,-1
 405 -140 l 1,0,-1
EndSplineSet
EndChar

StartChar: grave
Encoding: 96 96 67
Width: 150
Flags: W
LayerCount: 2
Fore
SplineSet
160 490 m 1,0,-1
 80 490 l 1,1,-1
 -60 630 l 1,2,-1
 40 630 l 1,3,-1
 160 490 l 1,0,-1
EndSplineSet
EndChar

StartChar: a
Encoding: 97 97 68
Width: 405
Flags: W
LayerCount: 2
Fore
SplineSet
340 0 m 1,0,-1
 260 0 l 1,1,-1
 260 60 l 1,2,-1
 200 0 l 1,3,-1
 120 0 l 1,4,-1
 50 70 l 1,5,-1
 50 210 l 1,6,-1
 120 280 l 1,7,-1
 252 280 l 1,8,-1
 185 211 l 1,9,-1
 130 211 l 1,10,-1
 130 70 l 1,11,-1
 260 70 l 1,12,-1
 260 350 l 1,13,-1
 40 350 l 1,14,-1
 100 420 l 1,15,-1
 271 420 l 1,16,-1
 340 350 l 1,17,-1
 340 0 l 1,0,-1
EndSplineSet
EndChar

StartChar: b
Encoding: 98 98 69
Width: 427
Flags: W
LayerCount: 2
Fore
SplineSet
365 70 m 1,0,-1
 295 0 l 1,1,-1
 155 0 l 1,2,-1
 155 69 l 1,3,-1
 75 -10 l 1,4,-1
 75 565 l 1,5,-1
 155 650 l 1,6,-1
 155 370 l 1,7,-1
 205 420 l 1,8,-1
 295 420 l 1,9,-1
 365 350 l 1,10,-1
 365 70 l 1,0,-1
285 70 m 1,11,-1
 285 350 l 1,12,-1
 155 350 l 1,13,-1
 155 70 l 1,14,-1
 285 70 l 1,11,-1
EndSplineSet
EndChar

StartChar: c
Encoding: 99 99 70
Width: 340
Flags: W
LayerCount: 2
Fore
SplineSet
332 350 m 1,0,-1
 252 269 l 1,1,-1
 252 350 l 1,2,-1
 142 350 l 1,3,-1
 142 70 l 1,4,-1
 322 70 l 1,5,-1
 322 0 l 1,6,-1
 132 0 l 1,7,-1
 62 70 l 1,8,-1
 62 350 l 1,9,-1
 132 420 l 1,10,-1
 262 420 l 1,11,-1
 332 350 l 1,0,-1
EndSplineSet
EndChar

StartChar: d
Encoding: 100 100 71
Width: 422
Flags: W
LayerCount: 2
Fore
SplineSet
352 0 m 1,0,-1
 272 0 l 1,1,-1
 272 60 l 1,2,-1
 214 0 l 1,3,-1
 132 0 l 1,4,-1
 62 70 l 1,5,-1
 62 350 l 1,6,-1
 132 420 l 1,7,-1
 272 420 l 1,8,-1
 272 561 l 1,9,-1
 352 640 l 1,10,-1
 352 0 l 1,0,-1
272 70 m 1,11,-1
 272 410 l 1,12,-1
 211 350 l 1,13,-1
 142 350 l 1,14,-1
 142 70 l 1,15,-1
 272 70 l 1,11,-1
EndSplineSet
EndChar

StartChar: e
Encoding: 101 101 72
Width: 394
Flags: W
LayerCount: 2
Fore
SplineSet
352 0 m 1,0,-1
 132 0 l 1,1,-1
 62 70 l 1,2,-1
 62 350 l 1,3,-1
 132 420 l 1,4,-1
 282 420 l 1,5,-1
 352 350 l 1,6,-1
 352 210 l 1,7,-1
 282 140 l 1,8,-1
 152 140 l 1,9,-1
 223 210 l 1,10,-1
 272 210 l 1,11,-1
 272 350 l 1,12,-1
 142 350 l 1,13,-1
 142 70 l 1,14,-1
 352 70 l 1,15,-1
 352 0 l 1,0,-1
EndSplineSet
EndChar

StartChar: f
Encoding: 102 102 73
Width: 260
Flags: W
LayerCount: 2
Fore
SplineSet
325 560 m 1,0,-1
 155 560 l 1,1,-1
 155 370 l 1,2,-1
 205 420 l 1,3,-1
 293 420 l 1,4,-1
 223 350 l 1,5,-1
 155 350 l 1,6,-1
 155 0 l 1,7,-1
 75 0 l 1,8,-1
 75 560 l 1,9,-1
 145 630 l 1,10,-1
 254 630 l 1,11,-1
 325 560 l 1,0,-1
EndSplineSet
EndChar

StartChar: g
Encoding: 103 103 74
Width: 392
Flags: W
LayerCount: 2
Fore
SplineSet
372 420 m 1,0,-1
 302 350 l 1,1,-1
 132 350 l 1,2,-1
 132 70 l 1,3,-1
 262 70 l 1,4,-1
 262 280 l 1,5,-1
 342 280 l 1,6,-1
 342 -140 l 1,7,-1
 272 -210 l 1,8,-1
 42 -210 l 1,9,-1
 111 -140 l 1,10,-1
 262 -140 l 1,11,-1
 262 61 l 1,12,-1
 182 0 l 1,13,-1
 122 0 l 1,14,-1
 52 70 l 1,15,-1
 52 350 l 1,16,-1
 122 420 l 1,17,-1
 372 420 l 1,0,-1
EndSplineSet
EndChar

StartChar: h
Encoding: 104 104 75
Width: 430
Flags: W
LayerCount: 2
Fore
SplineSet
365 0 m 1,0,-1
 285 0 l 1,1,-1
 285 350 l 1,2,-1
 155 350 l 1,3,-1
 155 0 l 1,4,-1
 75 0 l 1,5,-1
 75 569 l 1,6,-1
 155 648 l 1,7,-1
 155 360 l 1,8,-1
 214 420 l 1,9,-1
 295 420 l 1,10,-1
 365 350 l 1,11,-1
 365 0 l 1,0,-1
EndSplineSet
EndChar

StartChar: i
Encoding: 105 105 76
Width: 220
Flags: W
LayerCount: 2
Fore
SplineSet
150 490 m 1,0,-1
 70 490 l 1,1,-1
 70 570 l 1,2,-1
 150 570 l 1,3,-1
 150 490 l 1,0,-1
150 0 m 1,4,-1
 70 0 l 1,5,-1
 70 359 l 1,6,-1
 150 440 l 1,7,-1
 150 0 l 1,4,-1
EndSplineSet
EndChar

StartChar: j
Encoding: 106 106 77
Width: 215
Flags: W
LayerCount: 2
Fore
SplineSet
145 490 m 1,0,-1
 65 490 l 1,1,-1
 65 570 l 1,2,-1
 145 570 l 1,3,-1
 145 490 l 1,0,-1
145 -140 m 1,4,-1
 75 -210 l 1,5,-1
 -35 -210 l 1,6,-1
 37 -140 l 1,7,-1
 65 -140 l 1,8,-1
 65 358 l 1,9,-1
 145 440 l 1,10,-1
 145 -140 l 1,4,-1
EndSplineSet
EndChar

StartChar: k
Encoding: 107 107 78
Width: 400
Flags: W
LayerCount: 2
Fore
SplineSet
155 242 m 1,0,-1
 355 440 l 1,1,-1
 355 354 l 1,2,-1
 284 284 l 1,3,-1
 355 213 l 1,4,-1
 355 0 l 1,5,-1
 275 0 l 1,6,-1
 275 230 l 1,7,-1
 155 230 l 1,8,-1
 155 0 l 1,9,-1
 75 0 l 1,10,-1
 75 570 l 1,11,-1
 155 650 l 1,12,-1
 155 242 l 1,0,-1
EndSplineSet
EndChar

StartChar: l
Encoding: 108 108 79
Width: 225
Flags: W
LayerCount: 2
Fore
SplineSet
220 0 m 1,0,-1
 140 0 l 1,1,-1
 70 70 l 1,2,-1
 70 571 l 1,3,-1
 150 650 l 1,4,-1
 150 70 l 1,5,-1
 220 70 l 1,6,-1
 220 0 l 1,0,-1
EndSplineSet
EndChar

StartChar: m
Encoding: 109 109 80
Width: 615
Flags: W
LayerCount: 2
Fore
SplineSet
550 0 m 1,0,-1
 470 0 l 1,1,-1
 470 350 l 1,2,-1
 350 350 l 1,3,-1
 350 0 l 1,4,-1
 270 0 l 1,5,-1
 270 350 l 1,6,-1
 150 350 l 1,7,-1
 150 0 l 1,8,-1
 70 0 l 1,9,-1
 70 420 l 1,10,-1
 150 420 l 1,11,-1
 150 360 l 1,12,-1
 210 420 l 1,13,-1
 290 420 l 1,14,-1
 339 369 l 1,15,-1
 390 420 l 1,16,-1
 480 420 l 1,17,-1
 550 350 l 1,18,-1
 550 0 l 1,0,-1
EndSplineSet
EndChar

StartChar: n
Encoding: 110 110 81
Width: 425
Flags: W
LayerCount: 2
Fore
SplineSet
360 0 m 1,0,-1
 280 0 l 1,1,-1
 280 350 l 1,2,-1
 150 350 l 1,3,-1
 150 0 l 1,4,-1
 70 0 l 1,5,-1
 70 420 l 1,6,-1
 150 420 l 1,7,-1
 150 360 l 1,8,-1
 210 420 l 1,9,-1
 290 420 l 1,10,-1
 360 350 l 1,11,-1
 360 0 l 1,0,-1
EndSplineSet
EndChar

StartChar: o
Encoding: 111 111 82
Width: 414
Flags: W
LayerCount: 2
Fore
SplineSet
352 70 m 1,0,-1
 282 0 l 1,1,-1
 132 0 l 1,2,-1
 62 70 l 1,3,-1
 62 350 l 1,4,-1
 132 420 l 1,5,-1
 282 420 l 1,6,-1
 352 350 l 1,7,-1
 352 70 l 1,0,-1
272 70 m 1,8,-1
 272 350 l 1,9,-1
 142 350 l 1,10,-1
 142 70 l 1,11,-1
 272 70 l 1,8,-1
EndSplineSet
EndChar

StartChar: p
Encoding: 112 112 83
Width: 424
Flags: W
LayerCount: 2
Fore
SplineSet
362 70 m 1,0,-1
 293 0 l 1,1,-1
 152 0 l 1,2,-1
 152 -210 l 1,3,-1
 72 -210 l 1,4,-1
 72 420 l 1,5,-1
 152 420 l 1,6,-1
 152 360 l 1,7,-1
 211 420 l 1,8,-1
 293 420 l 1,9,-1
 362 350 l 1,10,-1
 362 70 l 1,0,-1
282 70 m 1,11,-1
 282 350 l 1,12,-1
 152 350 l 1,13,-1
 152 10 l 1,14,-1
 211 70 l 1,15,-1
 282 70 l 1,11,-1
EndSplineSet
EndChar

StartChar: q
Encoding: 113 113 84
Width: 422
Flags: W
LayerCount: 2
Fore
SplineSet
352 -140 m 1,0,-1
 272 -220 l 1,1,-1
 272 60 l 1,2,-1
 212 0 l 1,3,-1
 132 0 l 1,4,-1
 62 70 l 1,5,-1
 62 350 l 1,6,-1
 132 420 l 1,7,-1
 352 420 l 1,8,-1
 352 -140 l 1,0,-1
272 70 m 1,9,-1
 272 410 l 1,10,-1
 212 350 l 1,11,-1
 142 350 l 1,12,-1
 142 70 l 1,13,-1
 272 70 l 1,9,-1
EndSplineSet
EndChar

StartChar: r
Encoding: 114 114 85
Width: 375
Flags: W
LayerCount: 2
Fore
SplineSet
350 280 m 1,0,-1
 270 200 l 1,1,-1
 270 350 l 1,2,-1
 150 350 l 1,3,-1
 150 0 l 1,4,-1
 70 0 l 1,5,-1
 70 420 l 1,6,-1
 150 420 l 1,7,-1
 150 360 l 1,8,-1
 209 420 l 1,9,-1
 280 420 l 1,10,-1
 350 350 l 1,11,-1
 350 280 l 1,0,-1
EndSplineSet
EndChar

StartChar: s
Encoding: 115 115 86
Width: 318
Flags: W
LayerCount: 2
Fore
SplineSet
308 350 m 1,0,-1
 108 350 l 1,1,-1
 108 280 l 1,2,-1
 218 280 l 1,3,-1
 288 210 l 1,4,-1
 288 70 l 1,5,-1
 218 0 l 1,6,-1
 28 0 l 1,7,-1
 28 70 l 1,8,-1
 208 70 l 1,9,-1
 208 210 l 1,10,-1
 98 210 l 1,11,-1
 28 280 l 1,12,-1
 28 350 l 1,13,-1
 98 420 l 1,14,-1
 237 420 l 1,15,-1
 308 350 l 1,0,-1
EndSplineSet
EndChar

StartChar: t
Encoding: 116 116 87
Width: 265
Flags: W
LayerCount: 2
Fore
SplineSet
275 420 m 1,0,-1
 205 350 l 1,1,-1
 155 350 l 1,2,-1
 155 70 l 1,3,-1
 255 70 l 1,4,-1
 255 0 l 1,5,-1
 145 0 l 1,6,-1
 75 70 l 1,7,-1
 75 350 l 1,8,-1
 -25 350 l 1,9,-1
 45 420 l 1,10,-1
 75 420 l 1,11,-1
 75 480 l 1,12,-1
 155 560 l 1,13,-1
 155 420 l 1,14,-1
 275 420 l 1,0,-1
EndSplineSet
EndChar

StartChar: u
Encoding: 117 117 88
Width: 425
Flags: W
LayerCount: 2
Fore
SplineSet
355 0 m 1,0,-1
 275 0 l 1,1,-1
 275 60 l 1,2,-1
 215 0 l 1,3,-1
 135 0 l 1,4,-1
 65 70 l 1,5,-1
 65 420 l 1,6,-1
 145 420 l 1,7,-1
 145 70 l 1,8,-1
 275 70 l 1,9,-1
 275 420 l 1,10,-1
 355 420 l 1,11,-1
 355 0 l 1,0,-1
EndSplineSet
EndChar

StartChar: v
Encoding: 118 118 89
Width: 390
Flags: W
LayerCount: 2
Fore
SplineSet
340 112 m 1,0,-1
 228 0 l 1,1,-1
 162 0 l 1,2,-1
 50 112 l 1,3,-1
 50 440 l 1,4,-1
 130 360 l 1,5,-1
 130 125 l 1,6,-1
 195 61 l 1,7,-1
 260 125 l 1,8,-1
 260 360 l 1,9,-1
 340 440 l 1,10,-1
 340 112 l 1,0,-1
EndSplineSet
EndChar

StartChar: w
Encoding: 119 119 90
Width: 580
Flags: W
LayerCount: 2
Fore
SplineSet
530 102 m 1,0,-1
 428 0 l 1,1,-1
 360 0 l 1,2,-1
 290 69 l 1,3,-1
 220 0 l 1,4,-1
 152 0 l 1,5,-1
 50 102 l 1,6,-1
 50 440 l 1,7,-1
 130 360 l 1,8,-1
 130 115 l 1,9,-1
 190 56 l 1,10,-1
 250 120 l 1,11,-1
 250 360 l 1,12,-1
 330 440 l 1,13,-1
 330 120 l 1,14,-1
 390 56 l 1,15,-1
 450 115 l 1,16,-1
 450 360 l 1,17,-1
 530 440 l 1,18,-1
 530 102 l 1,0,-1
EndSplineSet
EndChar

StartChar: x
Encoding: 120 120 91
Width: 360
Flags: W
LayerCount: 2
Fore
SplineSet
325 0 m 1,0,-1
 245 0 l 1,1,-1
 245 135 l 1,2,-1
 180 199 l 1,3,-1
 115 135 l 1,4,-1
 115 0 l 1,5,-1
 35 0 l 1,6,-1
 35 144 l 1,7,-1
 136 244 l 1,8,-1
 35 344 l 1,9,-1
 35 444 l 1,10,-1
 180 297 l 1,11,-1
 325 444 l 1,12,-1
 325 344 l 1,13,-1
 223 244 l 1,14,-1
 325 145 l 1,15,-1
 325 0 l 1,0,-1
EndSplineSet
EndChar

StartChar: y
Encoding: 121 121 92
Width: 425
Flags: W
LayerCount: 2
Fore
SplineSet
355 -140 m 1,0,-1
 285 -210 l 1,1,-1
 55 -210 l 1,2,-1
 125 -140 l 1,3,-1
 275 -140 l 1,4,-1
 275 60 l 1,5,-1
 216 0 l 1,6,-1
 135 0 l 1,7,-1
 65 70 l 1,8,-1
 65 420 l 1,9,-1
 145 420 l 1,10,-1
 145 70 l 1,11,-1
 275 70 l 1,12,-1
 275 420 l 1,13,-1
 355 420 l 1,14,-1
 355 -140 l 1,0,-1
EndSplineSet
EndChar

StartChar: z
Encoding: 122 122 93
Width: 320
Flags: W
LayerCount: 2
Fore
SplineSet
285 0 m 1,0,-1
 35 0 l 1,1,-1
 35 133 l 1,2,-1
 215 314 l 1,3,-1
 215 350 l 1,4,-1
 35 350 l 1,5,-1
 35 420 l 1,6,-1
 285 420 l 1,7,-1
 285 283 l 1,8,-1
 108 105 l 1,9,-1
 108 70 l 1,10,-1
 285 70 l 1,11,-1
 285 0 l 1,0,-1
EndSplineSet
EndChar

StartChar: braceleft
Encoding: 123 123 94
Width: 280
Flags: W
LayerCount: 2
Fore
SplineSet
230 -70 m 1,0,-1
 160 -70 l 1,1,-1
 90 0 l 1,2,-1
 90 245 l 1,3,-1
 30 245 l 1,4,-1
 30 315 l 1,5,-1
 90 315 l 1,6,-1
 90 560 l 1,7,-1
 160 630 l 1,8,-1
 230 630 l 1,9,-1
 230 560 l 1,10,-1
 170 560 l 1,11,-1
 170 329 l 1,12,-1
 120 279 l 1,13,-1
 170 229 l 1,14,-1
 170 0 l 1,15,-1
 230 0 l 1,16,-1
 230 -70 l 1,0,-1
EndSplineSet
EndChar

StartChar: bar
Encoding: 124 124 95
Width: 220
Flags: W
LayerCount: 2
Fore
SplineSet
150 -70 m 1,0,-1
 70 -70 l 1,1,-1
 70 630 l 1,2,-1
 150 630 l 1,3,-1
 150 -70 l 1,0,-1
EndSplineSet
EndChar

StartChar: braceright
Encoding: 125 125 96
Width: 280
Flags: W
LayerCount: 2
Fore
SplineSet
50 0 m 1,0,-1
 110 0 l 1,1,-1
 110 229 l 1,2,-1
 160 279 l 1,3,-1
 110 329 l 1,4,-1
 110 560 l 1,5,-1
 50 560 l 1,6,-1
 50 630 l 1,7,-1
 120 630 l 1,8,-1
 190 560 l 1,9,-1
 190 315 l 1,10,-1
 250 315 l 1,11,-1
 250 245 l 1,12,-1
 190 245 l 1,13,-1
 190 0 l 1,14,-1
 120 -70 l 1,15,-1
 50 -70 l 1,16,-1
 50 0 l 1,0,-1
EndSplineSet
EndChar

StartChar: asciitilde
Encoding: 126 126 97
Width: 460
Flags: W
LayerCount: 2
Fore
SplineSet
390 280 m 1,0,-1
 320 210 l 1,1,-1
 249 210 l 1,2,-1
 179 280 l 1,3,-1
 140 280 l 1,4,-1
 140 210 l 1,5,-1
 70 210 l 1,6,-1
 70 280 l 1,7,-1
 140 350 l 1,8,-1
 213 350 l 1,9,-1
 283 280 l 1,10,-1
 320 280 l 1,11,-1
 320 350 l 1,12,-1
 390 350 l 1,13,-1
 390 280 l 1,0,-1
EndSplineSet
EndChar

StartChar: exclamdown
Encoding: 161 161 99
Width: 250
Flags: W
LayerCount: 2
Fore
SplineSet
80 201 m 1,0,-1
 160 280 l 1,1,-1
 160 -140 l 1,2,-1
 80 -140 l 1,3,-1
 80 201 l 1,0,-1
80 420 m 1,4,-1
 170 420 l 1,5,-1
 170 330 l 1,6,-1
 80 330 l 1,7,-1
 80 420 l 1,4,-1
EndSplineSet
EndChar

StartChar: cent
Encoding: 162 162 100
Width: 400
Flags: W
LayerCount: 2
Fore
SplineSet
380 70 m 1,0,-1
 311 0 l 1,1,-1
 270 0 l 1,2,-1
 270 -20 l 1,3,-1
 210 -80 l 1,4,-1
 210 0 l 1,5,-1
 130 0 l 1,6,-1
 60 70 l 1,7,-1
 60 350 l 1,8,-1
 130 420 l 1,9,-1
 210 420 l 1,10,-1
 210 440 l 1,11,-1
 270 500 l 1,12,-1
 270 420 l 1,13,-1
 311 420 l 1,14,-1
 380 350 l 1,15,-1
 270 350 l 1,16,-1
 270 70 l 1,17,-1
 380 70 l 1,0,-1
210 70 m 1,18,-1
 210 350 l 1,19,-1
 140 350 l 1,20,-1
 140 70 l 1,21,-1
 210 70 l 1,18,-1
EndSplineSet
EndChar

StartChar: sterling
Encoding: 163 163 101
Width: 478
Flags: W
LayerCount: 2
Fore
SplineSet
438 490 m 1,0,-1
 349 401 l 1,1,-1
 349 490 l 1,2,-1
 169 490 l 1,3,-1
 169 440 l 1,4,-1
 269 340 l 1,5,-1
 369 340 l 1,6,-1
 308 280 l 1,7,-1
 229 280 l 1,8,-1
 229 140 l 1,9,-1
 159 70 l 1,10,-1
 349 70 l 1,11,-1
 349 140 l 1,12,-1
 429 220 l 1,13,-1
 429 70 l 1,14,-1
 359 0 l 1,15,-1
 79 0 l 1,16,-1
 149 70 l 1,17,-1
 149 240 l 1,18,-1
 189 280 l 1,19,-1
 40 280 l 1,20,-1
 100 340 l 1,21,-1
 179 340 l 1,22,-1
 79 440 l 1,23,-1
 79 490 l 1,24,-1
 149 560 l 1,25,-1
 368 560 l 1,26,-1
 438 490 l 1,0,-1
EndSplineSet
EndChar

StartChar: currency
Encoding: 164 164 102
Width: 520
Flags: W
LayerCount: 2
Fore
SplineSet
458 281 m 1,0,-1
 385 207 l 1,1,-1
 442 151 l 1,2,-1
 392 102 l 1,3,-1
 336 157 l 1,4,-1
 261 82 l 1,5,-1
 186 157 l 1,6,-1
 130 102 l 1,7,-1
 81 151 l 1,8,-1
 137 206 l 1,9,-1
 62 280 l 1,10,-1
 136 354 l 1,11,-1
 81 409 l 1,12,-1
 130 458 l 1,13,-1
 185 404 l 1,14,-1
 261 479 l 1,15,-1
 336 403 l 1,16,-1
 392 458 l 1,17,-1
 442 409 l 1,18,-1
 386 354 l 1,19,-1
 458 281 l 1,0,-1
373 280 m 1,20,-1
 261 393 l 1,21,-1
 148 280 l 1,22,-1
 261 168 l 1,23,-1
 373 280 l 1,20,-1
EndSplineSet
EndChar

StartChar: yen
Encoding: 165 165 103
Width: 490
Flags: W
LayerCount: 2
Fore
SplineSet
440 140 m 1,0,-1
 371 70 l 1,1,-1
 285 70 l 1,2,-1
 285 0 l 1,3,-1
 205 0 l 1,4,-1
 205 70 l 1,5,-1
 51 70 l 1,6,-1
 120 140 l 1,7,-1
 205 140 l 1,8,-1
 205 210 l 1,9,-1
 50 210 l 1,10,-1
 119 280 l 1,11,-1
 201 280 l 1,12,-1
 69 411 l 1,13,-1
 70 560 l 1,14,-1
 150 560 l 1,15,-1
 150 425 l 1,16,-1
 245 330 l 1,17,-1
 340 425 l 1,18,-1
 340 560 l 1,19,-1
 420 560 l 1,20,-1
 420 411 l 1,21,-1
 290 280 l 1,22,-1
 440 280 l 1,23,-1
 368 210 l 1,24,-1
 285 210 l 1,25,-1
 285 140 l 1,26,-1
 440 140 l 1,0,-1
EndSplineSet
EndChar

StartChar: brokenbar
Encoding: 166 166 104
Width: 220
Flags: W
LayerCount: 2
Fore
SplineSet
150 385 m 1,0,-1
 70 385 l 1,1,-1
 70 630 l 1,2,-1
 150 630 l 1,3,-1
 150 385 l 1,0,-1
150 -70 m 1,4,-1
 70 -70 l 1,5,-1
 70 175 l 1,6,-1
 150 175 l 1,7,-1
 150 -70 l 1,4,-1
EndSplineSet
EndChar

StartChar: section
Encoding: 167 167 105
Width: 420
Flags: W
LayerCount: 2
Fore
SplineSet
330 -140 m 1,0,-1
 260 -210 l 1,1,-1
 140 -210 l 1,2,-1
 70 -140 l 1,3,-1
 248 -140 l 1,4,-1
 248 -81 l 1,5,-1
 83 84 l 1,6,-1
 83 260 l 1,7,-1
 153 332 l 1,8,-1
 90 395 l 1,9,-1
 90 490 l 1,10,-1
 160 560 l 1,11,-1
 281 560 l 1,12,-1
 350 490 l 1,13,-1
 165 490 l 1,14,-1
 165 431 l 1,15,-1
 350 247 l 1,16,-1
 350 76 l 1,17,-1
 274 0 l 1,18,-1
 330 -55 l 1,19,-1
 330 -140 l 1,0,-1
158 327 m 1,20,-1
 159 115 l 1,21,-1
 271 3 l 1,22,-1
 271 215 l 1,23,-1
 158 327 l 1,20,-1
EndSplineSet
EndChar

StartChar: dieresis
Encoding: 168 168 106
Width: 240
Flags: W
LayerCount: 2
Fore
SplineSet
230 490 m 1,0,-1
 155 490 l 1,1,-1
 155 580 l 1,2,-1
 230 580 l 1,3,-1
 230 490 l 1,0,-1
85 490 m 1,4,-1
 10 490 l 1,5,-1
 10 580 l 1,6,-1
 85 580 l 1,7,-1
 85 490 l 1,4,-1
EndSplineSet
EndChar

StartChar: copyright
Encoding: 169 169 107
Width: 840
Flags: W
LayerCount: 2
Fore
SplineSet
740 -70 m 1,0,-1
 670 -140 l 1,1,-1
 180 -140 l 1,2,-1
 100 -70 l 1,3,-1
 100 560 l 1,4,-1
 170 630 l 1,5,-1
 670 630 l 1,6,-1
 740 560 l 1,7,-1
 740 -70 l 1,0,-1
660 -70 m 1,8,-1
 660 560 l 1,9,-1
 180 560 l 1,10,-1
 180 -70 l 1,11,-1
 660 -70 l 1,8,-1
570 70 m 1,12,-1
 500 0 l 1,13,-1
 350 0 l 1,14,-1
 280 70 l 1,15,-1
 280 420 l 1,16,-1
 350 490 l 1,17,-1
 500 490 l 1,18,-1
 570 420 l 1,19,-1
 570 360 l 1,20,-1
 490 280 l 1,21,-1
 490 420 l 1,22,-1
 360 420 l 1,23,-1
 360 70 l 1,24,-1
 490 70 l 1,25,-1
 490 130 l 1,26,-1
 570 209 l 1,27,-1
 570 70 l 1,12,-1
EndSplineSet
EndChar

StartChar: ordfeminine
Encoding: 170 170 108
Width: 335
Flags: W
LayerCount: 2
Fore
SplineSet
285 210 m 1,0,-1
 205 210 l 1,1,-1
 205 271 l 1,2,-1
 143 210 l 1,3,-1
 120 210 l 1,4,-1
 50 280 l 1,5,-1
 50 350 l 1,6,-1
 120 420 l 1,7,-1
 194 420 l 1,8,-1
 135 361 l 1,9,-1
 135 280 l 1,10,-1
 205 280 l 1,11,-1
 205 490 l 1,12,-1
 40 490 l 1,13,-1
 110 560 l 1,14,-1
 215 560 l 1,15,-1
 285 490 l 1,16,-1
 285 210 l 1,0,-1
285 70 m 1,17,-1
 45 70 l 1,18,-1
 45 140 l 1,19,-1
 285 140 l 1,20,-1
 285 70 l 1,17,-1
EndSplineSet
EndChar

StartChar: guillemotleft
Encoding: 171 171 109
Width: 500
Flags: W
LayerCount: 2
Fore
SplineSet
460 127 m 1,0,-1
 411 75 l 1,1,-1
 243 244 l 1,2,-1
 414 413 l 1,3,-1
 460 364 l 1,4,-1
 341 245 l 1,5,-1
 460 127 l 1,0,-1
258 366 m 1,6,-1
 136 245 l 1,7,-1
 257 126 l 1,8,-1
 208 75 l 1,9,-1
 40 244 l 1,10,-1
 210 413 l 1,11,-1
 258 366 l 1,6,-1
EndSplineSet
EndChar

StartChar: logicalnot
Encoding: 172 172 110
Width: 400
Flags: W
LayerCount: 2
Fore
SplineSet
330 70 m 1,0,-1
 260 70 l 1,1,-1
 260 210 l 1,2,-1
 35 210 l 1,3,-1
 35 280 l 1,4,-1
 330 280 l 1,5,-1
 330 70 l 1,0,-1
EndSplineSet
EndChar

StartChar: registered
Encoding: 174 174 112
Width: 700
Flags: W
LayerCount: 2
Fore
SplineSet
630 140 m 1,0,-1
 561 70 l 1,1,-1
 140 70 l 1,2,-1
 70 140 l 1,3,-1
 70 630 l 1,4,-1
 140 700 l 1,5,-1
 560 700 l 1,6,-1
 630 630 l 1,7,-1
 630 140 l 1,0,-1
550 140 m 1,8,-1
 550 630 l 1,9,-1
 150 630 l 1,10,-1
 150 140 l 1,11,-1
 550 140 l 1,8,-1
522 210 m 1,12,-1
 428 210 l 1,13,-1
 310 328 l 1,14,-1
 310 210 l 1,15,-1
 230 210 l 1,16,-1
 230 421 l 1,17,-1
 300 490 l 1,18,-1
 220 490 l 1,19,-1
 220 560 l 1,20,-1
 421 560 l 1,21,-1
 490 490 l 1,22,-1
 490 358 l 1,23,-1
 430 297 l 1,24,-1
 522 210 l 1,12,-1
310 340 m 1,25,-1
 410 340 l 1,26,-1
 410 490 l 1,27,-1
 310 490 l 1,28,-1
 310 340 l 1,25,-1
EndSplineSet
EndChar

StartChar: macron
Encoding: 175 175 113
Width: 240
Flags: W
LayerCount: 2
Fore
SplineSet
210 490 m 1,0,-1
 30 490 l 1,1,-1
 30 560 l 1,2,-1
 210 560 l 1,3,-1
 210 490 l 1,0,-1
EndSplineSet
EndChar

StartChar: degree
Encoding: 176 176 114
Width: 350
Flags: W
LayerCount: 2
Fore
SplineSet
290 480 m 1,0,-1
 220 410 l 1,1,-1
 130 410 l 1,2,-1
 60 480 l 1,3,-1
 60 570 l 1,4,-1
 130 640 l 1,5,-1
 220 640 l 1,6,-1
 290 570 l 1,7,-1
 290 480 l 1,0,-1
220 480 m 1,8,-1
 220 570 l 1,9,-1
 130 570 l 1,10,-1
 130 480 l 1,11,-1
 220 480 l 1,8,-1
EndSplineSet
EndChar

StartChar: twosuperior
Encoding: 178 178 116
Width: 310
Flags: W
LayerCount: 2
Fore
SplineSet
260 280 m 1,0,-1
 50 280 l 1,1,-1
 50 375 l 1,2,-1
 190 513 l 1,3,-1
 190 560 l 1,4,-1
 40 560 l 1,5,-1
 110 630 l 1,6,-1
 190 630 l 1,7,-1
 260 560 l 1,8,-1
 260 494 l 1,9,-1
 125 360 l 1,10,-1
 125 350 l 1,11,-1
 260 350 l 1,12,-1
 260 280 l 1,0,-1
EndSplineSet
EndChar

StartChar: threesuperior
Encoding: 179 179 117
Width: 310
Flags: W
LayerCount: 2
Fore
SplineSet
260 350 m 1,0,-1
 190 280 l 1,1,-1
 110 280 l 1,2,-1
 40 350 l 1,3,-1
 183 350 l 1,4,-1
 183 442 l 1,5,-1
 112 442 l 1,6,-1
 112 492 l 1,7,-1
 175 555 l 1,8,-1
 175 560 l 1,9,-1
 50 560 l 1,10,-1
 50 630 l 1,11,-1
 260 630 l 1,12,-1
 260 572 l 1,13,-1
 188 501 l 1,14,-1
 260 430 l 1,15,-1
 260 350 l 1,0,-1
EndSplineSet
EndChar

StartChar: acute
Encoding: 180 180 118
Width: 150
Flags: W
LayerCount: 2
Fore
SplineSet
210 630 m 1,0,-1
 70 490 l 1,1,-1
 -10 490 l 1,2,-1
 110 630 l 1,3,-1
 210 630 l 1,0,-1
EndSplineSet
EndChar

StartChar: mu
Encoding: 181 181 119
Width: 430
Flags: W
LayerCount: 2
Fore
SplineSet
360 0 m 1,0,-1
 280 0 l 1,1,-1
 280 60 l 1,2,-1
 221 0 l 1,3,-1
 150 0 l 1,4,-1
 150 -210 l 1,5,-1
 70 -210 l 1,6,-1
 70 420 l 1,7,-1
 150 420 l 1,8,-1
 150 70 l 1,9,-1
 280 70 l 1,10,-1
 280 420 l 1,11,-1
 360 420 l 1,12,-1
 360 0 l 1,0,-1
EndSplineSet
EndChar

StartChar: paragraph
Encoding: 182 182 120
Width: 490
Flags: W
LayerCount: 2
Fore
SplineSet
450 490 m 1,0,-1
 390 432 l 1,1,-1
 390 -159 l 1,2,-1
 320 -229 l 1,3,-1
 320 420 l 1,4,-1
 240 420 l 1,5,-1
 240 -160 l 1,6,-1
 170 -230 l 1,7,-1
 170 140 l 1,8,-1
 140 140 l 1,9,-1
 70 210 l 1,10,-1
 70 420 l 1,11,-1
 140 490 l 1,12,-1
 450 490 l 1,0,-1
EndSplineSet
EndChar

StartChar: cedilla
Encoding: 184 184 122
Width: 280
Flags: W
LayerCount: 2
Fore
SplineSet
270 -150 m 1,0,-1
 208 -210 l 1,1,-1
 90 -210 l 1,2,-1
 30 -150 l 1,3,-1
 190 -150 l 1,4,-1
 190 -100 l 1,5,-1
 100 -100 l 1,6,-1
 100 -48 l 1,7,-1
 160 10 l 1,8,-1
 160 -51 l 1,9,-1
 210 -51 l 1,10,-1
 270 -110 l 1,11,-1
 270 -150 l 1,0,-1
EndSplineSet
EndChar

StartChar: onesuperior
Encoding: 185 185 123
Width: 310
Flags: W
LayerCount: 2
Fore
SplineSet
250 280 m 1,0,-1
 168 280 l 1,1,-1
 168 550 l 1,2,-1
 158 550 l 1,3,-1
 99 490 l 1,4,-1
 10 490 l 1,5,-1
 150 630 l 1,6,-1
 250 630 l 1,7,-1
 250 280 l 1,0,-1
EndSplineSet
EndChar

StartChar: ordmasculine
Encoding: 186 186 124
Width: 320
Flags: W
LayerCount: 2
Fore
SplineSet
280 280 m 1,0,-1
 210 210 l 1,1,-1
 110 210 l 1,2,-1
 40 280 l 1,3,-1
 40 490 l 1,4,-1
 110 560 l 1,5,-1
 210 560 l 1,6,-1
 280 490 l 1,7,-1
 280 280 l 1,0,-1
280 70 m 1,8,-1
 40 70 l 1,9,-1
 40 140 l 1,10,-1
 280 140 l 1,11,-1
 280 70 l 1,8,-1
200 280 m 1,12,-1
 200 490 l 1,13,-1
 120 490 l 1,14,-1
 120 280 l 1,15,-1
 200 280 l 1,12,-1
EndSplineSet
EndChar

StartChar: guillemotright
Encoding: 187 187 125
Width: 500
Flags: W
LayerCount: 2
Fore
SplineSet
159 245 m 1,0,-1
 40 364 l 1,1,-1
 86 413 l 1,2,-1
 257 244 l 1,3,-1
 89 75 l 1,4,-1
 40 127 l 1,5,-1
 159 245 l 1,0,-1
290 413 m 1,6,-1
 460 244 l 1,7,-1
 292 75 l 1,8,-1
 243 126 l 1,9,-1
 364 245 l 1,10,-1
 242 366 l 1,11,-1
 290 413 l 1,6,-1
EndSplineSet
EndChar

StartChar: questiondown
Encoding: 191 191 129
Width: 360
Flags: W
LayerCount: 2
Fore
SplineSet
50 130 m 1,0,-1
 200 280 l 1,1,-1
 200 190 l 1,2,-1
 130 120 l 1,3,-1
 130 -70 l 1,4,-1
 250 -70 l 1,5,-1
 250 70 l 1,6,-1
 330 70 l 1,7,-1
 330 -70 l 1,8,-1
 260 -140 l 1,9,-1
 120 -140 l 1,10,-1
 50 -70 l 1,11,-1
 50 130 l 1,0,-1
140 420 m 1,12,-1
 230 420 l 1,13,-1
 230 330 l 1,14,-1
 140 330 l 1,15,-1
 140 420 l 1,12,-1
EndSplineSet
EndChar

StartChar: AE
Encoding: 198 198 136
Width: 635
Flags: W
LayerCount: 2
Fore
SplineSet
595 0 m 1,0,-1
 325 0 l 1,1,-1
 325 210 l 1,2,-1
 155 210 l 1,3,-1
 155 0 l 1,4,-1
 75 0 l 1,5,-1
 75 490 l 1,6,-1
 145 560 l 1,7,-1
 595 560 l 1,8,-1
 595 490 l 1,9,-1
 405 490 l 1,10,-1
 405 290 l 1,11,-1
 464 350 l 1,12,-1
 595 350 l 1,13,-1
 595 280 l 1,14,-1
 405 280 l 1,15,-1
 405 70 l 1,16,-1
 595 70 l 1,17,-1
 595 0 l 1,0,-1
376 490 m 1,18,-1
 155 490 l 1,19,-1
 155 220 l 1,20,-1
 215 280 l 1,21,-1
 325 280 l 1,22,-1
 325 440 l 1,23,-1
 376 490 l 1,18,-1
EndSplineSet
EndChar

StartChar: Ccedilla
Encoding: 199 199 137
Width: 450
Flags: W
LayerCount: 2
Fore
SplineSet
410 70 m 1,0,-1
 340 0 l 1,1,-1
 250 0 l 1,2,-1
 250 -51 l 1,3,-1
 300 -51 l 1,4,-1
 360 -110 l 1,5,-1
 360 -150 l 1,6,-1
 298 -210 l 1,7,-1
 180 -210 l 1,8,-1
 120 -150 l 1,9,-1
 280 -150 l 1,10,-1
 280 -100 l 1,11,-1
 190 -100 l 1,12,-1
 190 -48 l 1,13,-1
 240 0 l 1,14,-1
 140 0 l 1,15,-1
 70 70 l 1,16,-1
 70 490 l 1,17,-1
 140 560 l 1,18,-1
 340 560 l 1,19,-1
 410 490 l 1,20,-1
 410 431 l 1,21,-1
 330 350 l 1,22,-1
 330 490 l 1,23,-1
 150 490 l 1,24,-1
 150 70 l 1,25,-1
 330 70 l 1,26,-1
 330 130 l 1,27,-1
 410 209 l 1,28,-1
 410 70 l 1,0,-1
EndSplineSet
EndChar

StartChar: Eth
Encoding: 208 208 146
Width: 505
Flags: W
LayerCount: 2
Fore
SplineSet
435 70 m 1,0,-1
 365 0 l 1,1,-1
 85 0 l 1,2,-1
 85 280 l 1,3,-1
 5 280 l 1,4,-1
 75 350 l 1,5,-1
 85 350 l 1,6,-1
 85 422 l 1,7,-1
 155 490 l 1,8,-1
 75 490 l 1,9,-1
 75 560 l 1,10,-1
 365 560 l 1,11,-1
 435 490 l 1,12,-1
 435 70 l 1,0,-1
355 70 m 1,13,-1
 355 490 l 1,14,-1
 165 490 l 1,15,-1
 165 350 l 1,16,-1
 290 350 l 1,17,-1
 219 280 l 1,18,-1
 165 280 l 1,19,-1
 165 10 l 1,20,-1
 225 70 l 1,21,-1
 355 70 l 1,13,-1
EndSplineSet
EndChar

StartChar: multiply
Encoding: 215 215 153
Width: 400
Flags: W
LayerCount: 2
Fore
SplineSet
342 153 m 1,0,-1
 292 104 l 1,1,-1
 200 196 l 1,2,-1
 108 104 l 1,3,-1
 59 153 l 1,4,-1
 151 245 l 1,5,-1
 59 337 l 1,6,-1
 108 386 l 1,7,-1
 200 294 l 1,8,-1
 292 386 l 1,9,-1
 342 337 l 1,10,-1
 250 245 l 1,11,-1
 342 153 l 1,0,-1
EndSplineSet
EndChar

StartChar: Oslash
Encoding: 216 216 154
Width: 500
Flags: W
LayerCount: 2
Fore
SplineSet
470 564 m 1,0,-1
 425 496 l 1,1,-1
 425 70 l 1,2,-1
 355 0 l 1,3,-1
 156 0 l 1,4,-1
 126 30 l 1,5,-1
 71 -45 l 1,6,-1
 30 -2 l 1,7,-1
 75 62 l 1,8,-1
 75 490 l 1,9,-1
 146 560 l 1,10,-1
 339 560 l 1,11,-1
 369 529 l 1,12,-1
 423 610 l 1,13,-1
 470 564 l 1,0,-1
345 469 m 1,14,-1
 345 490 l 1,15,-1
 155 490 l 1,16,-1
 155 189 l 1,17,-1
 160 189 l 1,18,-1
 345 469 l 1,14,-1
345 368 m 1,19,-1
 340 368 l 1,20,-1
 155 88 l 1,21,-1
 155 70 l 1,22,-1
 345 70 l 1,23,-1
 345 368 l 1,19,-1
EndSplineSet
EndChar

StartChar: Thorn
Encoding: 222 222 160
Width: 465
Flags: W
LayerCount: 2
Fore
SplineSet
420 210 m 1,0,-1
 350 140 l 1,1,-1
 150 140 l 1,2,-1
 150 0 l 1,3,-1
 70 0 l 1,4,-1
 70 560 l 1,5,-1
 150 560 l 1,6,-1
 150 490 l 1,7,-1
 350 490 l 1,8,-1
 420 420 l 1,9,-1
 420 210 l 1,0,-1
340 210 m 1,10,-1
 340 420 l 1,11,-1
 150 420 l 1,12,-1
 150 150 l 1,13,-1
 210 210 l 1,14,-1
 340 210 l 1,10,-1
EndSplineSet
EndChar

StartChar: germandbls
Encoding: 223 223 161
Width: 430
Flags: W
LayerCount: 2
Fore
SplineSet
365 70 m 1,0,-1
 295 0 l 1,1,-1
 165 0 l 1,2,-1
 235 70 l 1,3,-1
 285 70 l 1,4,-1
 285 350 l 1,5,-1
 184 350 l 1,6,-1
 265 430 l 1,7,-1
 265 560 l 1,8,-1
 155 560 l 1,9,-1
 155 0 l 1,10,-1
 75 0 l 1,11,-1
 75 560 l 1,12,-1
 145 630 l 1,13,-1
 275 630 l 1,14,-1
 345 560 l 1,15,-1
 345 450 l 1,16,-1
 305 410 l 1,17,-1
 365 350 l 1,18,-1
 365 70 l 1,0,-1
EndSplineSet
EndChar

StartChar: ae
Encoding: 230 230 168
Width: 563
Flags: W
LayerCount: 2
Fore
SplineSet
520 210 m 1,0,-1
 450 140 l 1,1,-1
 330 140 l 1,2,-1
 400 210 l 1,3,-1
 440 210 l 1,4,-1
 440 350 l 1,5,-1
 320 350 l 1,6,-1
 320 70 l 1,7,-1
 505 70 l 1,8,-1
 505 0 l 1,9,-1
 314 0 l 1,10,-1
 262 53 l 1,11,-1
 210 0 l 1,12,-1
 110 0 l 1,13,-1
 40 70 l 1,14,-1
 40 210 l 1,15,-1
 110 280 l 1,16,-1
 230 280 l 1,17,-1
 164 210 l 1,18,-1
 120 210 l 1,19,-1
 120 70 l 1,20,-1
 240 70 l 1,21,-1
 240 350 l 1,22,-1
 40 350 l 1,23,-1
 100 420 l 1,24,-1
 249 420 l 1,25,-1
 295 375 l 1,26,-1
 340 420 l 1,27,-1
 449 420 l 1,28,-1
 520 350 l 1,29,-1
 520 210 l 1,0,-1
EndSplineSet
EndChar

StartChar: ccedilla
Encoding: 231 231 169
Width: 340
Flags: W
LayerCount: 2
Fore
SplineSet
332 350 m 1,0,-1
 252 269 l 1,1,-1
 252 350 l 1,2,-1
 142 350 l 1,3,-1
 142 70 l 1,4,-1
 322 70 l 1,5,-1
 322 0 l 1,6,-1
 212 0 l 1,7,-1
 212 -51 l 1,8,-1
 262 -51 l 1,9,-1
 322 -110 l 1,10,-1
 322 -150 l 1,11,-1
 260 -210 l 1,12,-1
 142 -210 l 1,13,-1
 82 -150 l 1,14,-1
 242 -150 l 1,15,-1
 242 -100 l 1,16,-1
 152 -100 l 1,17,-1
 152 -48 l 1,18,-1
 202 0 l 1,19,-1
 132 0 l 1,20,-1
 62 70 l 1,21,-1
 62 350 l 1,22,-1
 132 420 l 1,23,-1
 262 420 l 1,24,-1
 332 350 l 1,0,-1
EndSplineSet
EndChar

StartChar: eth
Encoding: 240 240 178
Width: 420
Flags: W
LayerCount: 2
Fore
SplineSet
350 70 m 1,0,-1
 280 0 l 1,1,-1
 130 0 l 1,2,-1
 60 70 l 1,3,-1
 60 280 l 1,4,-1
 130 350 l 1,5,-1
 270 350 l 1,6,-1
 270 422 l 1,7,-1
 202 491 l 1,8,-1
 120 407 l 1,9,-1
 120 493 l 1,10,-1
 160 530 l 1,11,-1
 99 592 l 1,12,-1
 150 643 l 1,13,-1
 224 570 l 1,14,-1
 302 649 l 1,15,-1
 302 566 l 1,16,-1
 265 531 l 1,17,-1
 350 447 l 1,18,-1
 350 70 l 1,0,-1
270 340 m 1,19,-1
 210 280 l 1,20,-1
 140 280 l 1,21,-1
 140 70 l 1,22,-1
 270 70 l 1,23,-1
 270 340 l 1,19,-1
EndSplineSet
EndChar

StartChar: oslash
Encoding: 248 248 186
Width: 416
Flags: W
LayerCount: 2
Fore
SplineSet
353 70 m 1,0,-1
 283 0 l 1,1,-1
 133 0 l 1,2,-1
 104 -44 l 1,3,-1
 63 -2 l 1,4,-1
 88 45 l 1,5,-1
 63 70 l 1,6,-1
 63 350 l 1,7,-1
 133 420 l 1,8,-1
 283 420 l 1,9,-1
 306 460 l 1,10,-1
 353 420 l 1,11,-1
 325 378 l 1,12,-1
 353 350 l 1,13,-1
 353 70 l 1,0,-1
248 350 m 1,14,-1
 130 350 l 1,15,-1
 130 132 l 1,16,-1
 136 132 l 1,17,-1
 248 350 l 1,14,-1
276 70 m 1,18,-1
 276 293 l 1,19,-1
 270 293 l 1,20,-1
 164 70 l 1,21,-1
 276 70 l 1,18,-1
EndSplineSet
EndChar

StartChar: thorn
Encoding: 254 254 192
Width: 427
Flags: W
LayerCount: 2
Fore
SplineSet
365 70 m 1,0,-1
 295 0 l 1,1,-1
 155 0 l 1,2,-1
 155 -210 l 1,3,-1
 75 -210 l 1,4,-1
 75 572 l 1,5,-1
 155 650 l 1,6,-1
 155 360 l 1,7,-1
 214 420 l 1,8,-1
 295 420 l 1,9,-1
 365 350 l 1,10,-1
 365 70 l 1,0,-1
285 70 m 1,11,-1
 285 350 l 1,12,-1
 155 350 l 1,13,-1
 155 10 l 1,14,-1
 214 70 l 1,15,-1
 285 70 l 1,11,-1
EndSplineSet
EndChar

StartChar: dotlessi
Encoding: 305 305 194
Width: 220
Flags: W
LayerCount: 2
Fore
SplineSet
150 0 m 1,0,-1
 70 0 l 1,1,-1
 70 359 l 1,2,-1
 150 440 l 1,3,-1
 150 0 l 1,0,-1
EndSplineSet
EndChar

StartChar: OE
Encoding: 338 338 195
Width: 630
Flags: W
LayerCount: 2
Fore
SplineSet
590 0 m 1,0,-1
 400 0 l 1,1,-1
 360 40 l 1,2,-1
 320 0 l 1,3,-1
 140 0 l 1,4,-1
 70 70 l 1,5,-1
 70 490 l 1,6,-1
 140 560 l 1,7,-1
 320 560 l 1,8,-1
 360 520 l 1,9,-1
 400 560 l 1,10,-1
 590 560 l 1,11,-1
 590 490 l 1,12,-1
 400 490 l 1,13,-1
 400 290 l 1,14,-1
 460 350 l 1,15,-1
 590 350 l 1,16,-1
 590 280 l 1,17,-1
 400 280 l 1,18,-1
 400 70 l 1,19,-1
 590 70 l 1,20,-1
 590 0 l 1,0,-1
320 70 m 1,21,-1
 320 490 l 1,22,-1
 150 490 l 1,23,-1
 150 70 l 1,24,-1
 320 70 l 1,21,-1
EndSplineSet
EndChar

StartChar: oe
Encoding: 339 339 196
Width: 584
Flags: W
LayerCount: 2
Fore
SplineSet
542 210 m 1,0,-1
 472 140 l 1,1,-1
 352 140 l 1,2,-1
 422 210 l 1,3,-1
 462 210 l 1,4,-1
 462 350 l 1,5,-1
 342 350 l 1,6,-1
 342 70 l 1,7,-1
 532 70 l 1,8,-1
 532 0 l 1,9,-1
 332 0 l 1,10,-1
 287 45 l 1,11,-1
 241 0 l 1,12,-1
 133 0 l 1,13,-1
 62 70 l 1,14,-1
 62 350 l 1,15,-1
 133 420 l 1,16,-1
 272 420 l 1,17,-1
 307 385 l 1,18,-1
 343 420 l 1,19,-1
 472 420 l 1,20,-1
 542 350 l 1,21,-1
 542 210 l 1,0,-1
262 70 m 1,22,-1
 262 350 l 1,23,-1
 142 350 l 1,24,-1
 142 70 l 1,25,-1
 262 70 l 1,22,-1
EndSplineSet
EndChar

StartChar: circumflex
Encoding: 710 710 197
Width: 250
Flags: W
LayerCount: 2
Fore
SplineSet
265 490 m 1,0,-1
 186 490 l 1,1,-1
 121 565 l 1,2,-1
 56 490 l 1,3,-1
 -15 490 l 1,4,-1
 125 640 l 1,5,-1
 265 490 l 1,0,-1
EndSplineSet
EndChar

StartChar: caron
Encoding: 711 711 198
Width: 250
Flags: W
LayerCount: 2
Fore
SplineSet
-15 620 m 1,0,-1
 64 620 l 1,1,-1
 129 545 l 1,2,-1
 194 620 l 1,3,-1
 265 620 l 1,4,-1
 125 470 l 1,5,-1
 -15 620 l 1,0,-1
EndSplineSet
EndChar

StartChar: ring
Encoding: 730 730 199
Width: 230
Flags: W
LayerCount: 2
Fore
SplineSet
200 519 m 1,0,-1
 155 475 l 1,1,-1
 75 475 l 1,2,-1
 30 519 l 1,3,-1
 30 601 l 1,4,-1
 75 646 l 1,5,-1
 155 646 l 1,6,-1
 200 601 l 1,7,-1
 200 519 l 1,0,-1
165 560 m 1,8,-1
 117 610 l 1,9,-1
 66 560 l 1,10,-1
 116 510 l 1,11,-1
 165 560 l 1,8,-1
EndSplineSet
EndChar

StartChar: tilde
Encoding: 732 732 200
Width: 280
Flags: W
LayerCount: 2
Fore
SplineSet
255 539 m 1,0,-1
 197 482 l 1,1,-1
 84 569 l 1,2,-1
 83 491 l 1,3,-1
 25 491 l 1,4,-1
 25 570 l 1,5,-1
 89 635 l 1,6,-1
 199 553 l 1,7,-1
 199 630 l 1,8,-1
 255 630 l 1,9,-1
 255 539 l 1,0,-1
EndSplineSet
EndChar

StartChar: endash
Encoding: 8211 8211 201
Width: 350
Flags: W
LayerCount: 2
Fore
SplineSet
280 210 m 1,0,-1
 70 210 l 1,1,-1
 70 280 l 1,2,-1
 280 280 l 1,3,-1
 280 210 l 1,0,-1
EndSplineSet
EndChar

StartChar: emdash
Encoding: 8212 8212 202
Width: 360
Flags: W
LayerCount: 2
Fore
SplineSet
330 210 m 1,0,-1
 30 210 l 1,1,-1
 30 280 l 1,2,-1
 330 280 l 1,3,-1
 330 210 l 1,0,-1
EndSplineSet
EndChar

StartChar: quoteleft
Encoding: 8216 8216 203
Width: 240
Flags: W
LayerCount: 2
Fore
SplineSet
70 524 m 1,0,-1
 140 590 l 1,1,-1
 140 440 l 1,2,-1
 190 440 l 1,3,-1
 190 350 l 1,4,-1
 130 350 l 1,5,-1
 70 410 l 1,6,-1
 70 524 l 1,0,-1
EndSplineSet
EndChar

StartChar: quotedblleft
Encoding: 8220 8220 206
Width: 400
Flags: W
LayerCount: 2
Fore
SplineSet
70 524 m 1,0,-1
 140 590 l 1,1,-1
 140 440 l 1,2,-1
 190 440 l 1,3,-1
 190 350 l 1,4,-1
 130 350 l 1,5,-1
 70 410 l 1,6,-1
 70 524 l 1,0,-1
230 524 m 1,7,-1
 300 590 l 1,8,-1
 300 440 l 1,9,-1
 350 440 l 1,10,-1
 350 350 l 1,11,-1
 290 350 l 1,12,-1
 230 410 l 1,13,-1
 230 524 l 1,7,-1
EndSplineSet
EndChar

StartChar: bullet
Encoding: 8226 8226 209
Width: 220
Flags: W
LayerCount: 2
Fore
SplineSet
190 270 m 1,0,-1
 120 200 l 1,1,-1
 100 200 l 1,2,-1
 30 270 l 1,3,-1
 30 290 l 1,4,-1
 100 360 l 1,5,-1
 120 360 l 1,6,-1
 190 290 l 1,7,-1
 190 270 l 1,0,-1
EndSplineSet
EndChar

StartChar: guilsinglleft
Encoding: 8249 8249 210
Width: 298
Flags: W
LayerCount: 2
Fore
SplineSet
258 366 m 1,0,-1
 136 245 l 1,1,-1
 257 126 l 1,2,-1
 208 75 l 1,3,-1
 40 244 l 1,4,-1
 210 413 l 1,5,-1
 258 366 l 1,0,-1
EndSplineSet
EndChar

StartChar: guilsinglright
Encoding: 8250 8250 211
Width: 297
Flags: W
LayerCount: 2
Fore
SplineSet
159 245 m 1,0,-1
 40 364 l 1,1,-1
 86 413 l 1,2,-1
 257 244 l 1,3,-1
 89 75 l 1,4,-1
 40 127 l 1,5,-1
 159 245 l 1,0,-1
EndSplineSet
EndChar

StartChar: fraction
Encoding: 8260 8260 212
Width: 310
Flags: W
LayerCount: 2
Fore
SplineSet
310 630 m 1,0,-1
 64 0 l 1,1,-1
 0 0 l 1,2,-1
 249 630 l 1,3,-1
 310 630 l 1,0,-1
EndSplineSet
EndChar

StartChar: foursuperior
Encoding: 8308 8308 213
Width: 310
Flags: W
LayerCount: 2
Fore
SplineSet
285 630 m 1,0,-1
 135 480 l 1,1,-1
 135 420 l 1,2,-1
 194 420 l 1,3,-1
 194 440 l 1,4,-1
 273 518 l 1,5,-1
 273 280 l 1,6,-1
 191 280 l 1,7,-1
 191 350 l 1,8,-1
 60 350 l 1,9,-1
 60 506 l 1,10,-1
 184 630 l 1,11,-1
 285 630 l 1,0,-1
EndSplineSet
EndChar

StartChar: Euro
Encoding: 8364 8364 214
Width: 490
Flags: W
LayerCount: 2
Fore
SplineSet
460 560 m 1,0,-1
 390 490 l 1,1,-1
 200 490 l 1,2,-1
 200 420 l 1,3,-1
 376 420 l 1,4,-1
 305 350 l 1,5,-1
 200 350 l 1,6,-1
 200 280 l 1,7,-1
 290 280 l 1,8,-1
 219 210 l 1,9,-1
 200 210 l 1,10,-1
 200 70 l 1,11,-1
 407 70 l 1,12,-1
 407 0 l 1,13,-1
 190 0 l 1,14,-1
 120 70 l 1,15,-1
 120 210 l 1,16,-1
 50 210 l 1,17,-1
 120 280 l 1,18,-1
 120 350 l 1,19,-1
 50 350 l 1,20,-1
 120 420 l 1,21,-1
 120 490 l 1,22,-1
 190 560 l 1,23,-1
 460 560 l 1,0,-1
EndSplineSet
EndChar

StartChar: minus
Encoding: 8722 8722 215
Width: 400
Flags: W
LayerCount: 2
Fore
SplineSet
365 210 m 1,0,-1
 35 210 l 1,1,-1
 35 280 l 1,2,-1
 365 280 l 1,3,-1
 365 210 l 1,0,-1
EndSplineSet
EndChar

StartChar: designer
Encoding: 61440 61440 216
Width: 1009
Flags: W
LayerCount: 2
Fore
SplineSet
825 -47 m 1,0,-1
 803 -70 l 1,1,-1
 40 -70 l 1,2,-1
 59 -51 l 1,3,-1
 803 -51 l 1,4,-1
 803 16 l 1,5,-1
 787 0 l 1,6,-1
 740 0 l 1,7,-1
 717 22 l 1,8,-1
 717 184 l 1,9,-1
 740 184 l 1,10,-1
 740 19 l 1,11,-1
 803 19 l 1,12,-1
 803 184 l 1,13,-1
 825 184 l 1,14,-1
 825 -47 l 1,0,-1
584 234 m 1,15,-1
 562 211 l 1,16,-1
 495 211 l 1,17,-1
 472 234 l 1,18,-1
 472 376 l 1,19,-1
 495 398 l 1,20,-1
 562 398 l 1,21,-1
 584 376 l 1,22,-1
 584 234 l 1,15,-1
340 184 m 1,23,-1
 286 140 l 1,24,-1
 286 136 l 1,25,-1
 301 136 l 1,26,-1
 334 114 l 1,27,-1
 334 0 l 1,28,-1
 312 0 l 1,29,-1
 312 120 l 1,30,-1
 244 120 l 1,31,-1
 244 0 l 1,32,-1
 222 0 l 1,33,-1
 222 428 l 1,34,-1
 244 452 l 1,35,-1
 244 337 l 1,36,-1
 312 398 l 1,37,-1
 340 398 l 1,38,-1
 287 354 l 1,39,-1
 287 351 l 1,40,-1
 301 351 l 1,41,-1
 334 328 l 1,42,-1
 334 211 l 1,43,-1
 312 211 l 1,44,-1
 312 334 l 1,45,-1
 244 334 l 1,46,-1
 244 123 l 1,47,-1
 312 184 l 1,48,-1
 340 184 l 1,23,-1
969 184 m 1,49,-1
 914 140 l 1,50,-1
 914 136 l 1,51,-1
 930 136 l 1,52,-1
 963 114 l 1,53,-1
 963 -70 l 1,54,-1
 940 -70 l 1,55,-1
 940 120 l 1,56,-1
 873 120 l 1,57,-1
 873 0 l 1,58,-1
 851 0 l 1,59,-1
 851 428 l 1,60,-1
 873 452 l 1,61,-1
 873 123 l 1,62,-1
 938 184 l 1,63,-1
 969 184 l 1,49,-1
459 0 m 1,64,-1
 437 0 l 1,65,-1
 437 165 l 1,66,-1
 376 165 l 1,67,-1
 376 0 l 1,68,-1
 353 0 l 1,69,-1
 353 266 l 1,70,-1
 376 294 l 1,71,-1
 376 173 l 1,72,-1
 387 184 l 1,73,-1
 437 184 l 1,74,-1
 459 162 l 1,75,-1
 459 0 l 1,64,-1
562 165 m 1,76,-1
 474 165 l 1,77,-1
 493 184 l 1,78,-1
 562 184 l 1,79,-1
 584 162 l 1,80,-1
 584 0 l 1,81,-1
 562 0 l 1,82,-1
 562 16 l 1,83,-1
 543 0 l 1,84,-1
 500 0 l 1,85,-1
 477 22 l 1,86,-1
 477 117 l 1,87,-1
 500 139 l 1,88,-1
 562 139 l 1,89,-1
 543 120 l 1,90,-1
 500 120 l 1,91,-1
 500 19 l 1,92,-1
 562 19 l 1,93,-1
 562 165 l 1,76,-1
562 230 m 1,94,-1
 562 379 l 1,95,-1
 495 379 l 1,96,-1
 495 230 l 1,97,-1
 562 230 l 1,94,-1
159 398 m 1,98,-1
 121 211 l 1,99,-1
 78 211 l 1,100,-1
 41 398 l 1,101,-1
 67 398 l 1,102,-1
 97 230 l 1,103,-1
 103 230 l 1,104,-1
 134 398 l 1,105,-1
 159 398 l 1,98,-1
464 211 m 1,106,-1
 416 211 l 1,107,-1
 393 234 l 1,108,-1
 393 379 l 1,109,-1
 332 379 l 1,110,-1
 357 398 l 1,111,-1
 393 398 l 1,112,-1
 393 427 l 1,113,-1
 416 449 l 1,114,-1
 416 398 l 1,115,-1
 464 398 l 1,116,-1
 464 379 l 1,117,-1
 416 379 l 1,118,-1
 416 230 l 1,119,-1
 464 230 l 1,120,-1
 464 211 l 1,106,-1
700 325 m 1,121,-1
 678 325 l 1,122,-1
 678 379 l 1,123,-1
 633 379 l 1,124,-1
 633 211 l 1,125,-1
 611 211 l 1,126,-1
 611 398 l 1,127,-1
 633 398 l 1,128,-1
 633 382 l 1,129,-1
 649 398 l 1,130,-1
 678 398 l 1,131,-1
 700 376 l 1,132,-1
 700 325 l 1,121,-1
700 109 m 1,133,-1
 678 109 l 1,134,-1
 678 165 l 1,135,-1
 633 165 l 1,136,-1
 633 0 l 1,137,-1
 611 0 l 1,138,-1
 611 184 l 1,139,-1
 633 184 l 1,140,-1
 633 168 l 1,141,-1
 649 184 l 1,142,-1
 678 184 l 1,143,-1
 700 162 l 1,144,-1
 700 109 l 1,133,-1
197 211 m 1,145,-1
 174 211 l 1,146,-1
 174 382 l 1,147,-1
 197 405 l 1,148,-1
 197 211 l 1,145,-1
197 419 m 1,149,-1
 174 419 l 1,150,-1
 174 445 l 1,151,-1
 197 445 l 1,152,-1
 197 419 l 1,149,-1
EndSplineSet
EndChar

StartChar: grave.case
Encoding: 65537 -1 217
Width: 200
Flags: W
LayerCount: 2
Fore
SplineSet
200 630 m 1,0,-1
 120 630 l 1,1,-1
 0 730 l 1,2,-1
 100 730 l 1,3,-1
 200 630 l 1,0,-1
EndSplineSet
EndChar

StartChar: acute.case
Encoding: 65538 -1 218
Width: 200
Flags: W
LayerCount: 2
Fore
SplineSet
200 730 m 1,0,-1
 80 630 l 1,1,-1
 0 630 l 1,2,-1
 100 730 l 1,3,-1
 200 730 l 1,0,-1
EndSplineSet
EndChar

StartChar: circumflex.case
Encoding: 65539 -1 219
Width: 250
Flags: W
LayerCount: 2
Fore
SplineSet
250 630 m 1,0,-1
 173 630 l 1,1,-1
 121 686 l 1,2,-1
 70 630 l 1,3,-1
 0 630 l 1,4,-1
 126 758 l 1,5,-1
 250 630 l 1,0,-1
EndSplineSet
EndChar

StartChar: caron.case
Encoding: 65540 -1 220
Width: 250
Flags: W
LayerCount: 2
Fore
SplineSet
0 738 m 1,0,-1
 77 738 l 1,1,-1
 129 682 l 1,2,-1
 180 738 l 1,3,-1
 250 738 l 1,4,-1
 124 610 l 1,5,-1
 0 738 l 1,0,-1
EndSplineSet
EndChar

StartChar: ring.case
Encoding: 65541 -1 221
Width: 250
Flags: W
LayerCount: 2
Fore
SplineSet
220 610 m 1,0,-1
 168 560 l 1,1,-1
 81 560 l 1,2,-1
 30 610 l 1,3,-1
 30 680 l 1,4,-1
 82 731 l 1,5,-1
 169 731 l 1,6,-1
 220 680 l 1,7,-1
 220 610 l 1,0,-1
180 645 m 1,8,-1
 127 699 l 1,9,-1
 73 645 l 1,10,-1
 126 591 l 1,11,-1
 180 645 l 1,8,-1
EndSplineSet
EndChar

StartChar: tilde.case
Encoding: 65542 -1 222
Width: 280
Flags: W
LayerCount: 2
Fore
SplineSet
255 684 m 1,0,-1
 197 627 l 1,1,-1
 84 684 l 1,2,-1
 83 631 l 1,3,-1
 25 631 l 1,4,-1
 25 690 l 1,5,-1
 82 745 l 1,6,-1
 199 690 l 1,7,-1
 199 740 l 1,8,-1
 255 740 l 1,9,-1
 255 684 l 1,0,-1
EndSplineSet
EndChar

StartChar: foundryicon
Encoding: 65544 -1 224
Width: 1742
Flags: W
LayerCount: 2
Fore
SplineSet
1192 643 m 1,0,1
 1181 620 1181 620 1168.5 588.5 c 128,-1,2
 1156 557 1156 557 1138.5 527 c 128,-1,3
 1121 497 1121 497 1096.5 474 c 128,-1,4
 1072 451 1072 451 1037 445 c 1,5,6
 1044 431 1044 431 1050.5 418.5 c 128,-1,7
 1057 406 1057 406 1063 395 c 0,8,9
 1063 394 1063 394 1064 393 c 0,10,11
 1091 379 1091 379 1106.5 351.5 c 128,-1,12
 1122 324 1122 324 1122 279 c 0,13,14
 1122 253 1122 253 1116.5 227.5 c 128,-1,15
 1111 202 1111 202 1100.5 179.5 c 128,-1,16
 1090 157 1090 157 1074.5 140.5 c 128,-1,17
 1059 124 1059 124 1038 118 c 1,18,19
 1043 97 1043 97 1050 78 c 128,-1,20
 1057 59 1057 59 1071 50 c 1,21,22
 1086 56 1086 56 1097.5 67 c 128,-1,23
 1109 78 1109 78 1118 91.5 c 128,-1,24
 1127 105 1127 105 1133.5 119 c 128,-1,25
 1140 133 1140 133 1145 145 c 1,26,-1
 1145 198 l 1,27,28
 1147 252 1147 252 1161 300.5 c 128,-1,29
 1175 349 1175 349 1210 386 c 1,30,31
 1247 386 1247 386 1281 373 c 1,32,33
 1282 377 1282 377 1284.5 387.5 c 128,-1,34
 1287 398 1287 398 1290 410 c 128,-1,35
 1293 422 1293 422 1296.5 432 c 128,-1,36
 1300 442 1300 442 1303 444 c 1,37,38
 1311 446 1311 446 1324 444 c 128,-1,39
 1337 442 1337 442 1350 437 c 128,-1,40
 1363 432 1363 432 1374 425.5 c 128,-1,41
 1385 419 1385 419 1391 413 c 1,42,43
 1385 371 1385 371 1381 321 c 128,-1,44
 1377 271 1377 271 1377 219 c 0,45,46
 1377 171 1377 171 1381 126.5 c 128,-1,47
 1385 82 1385 82 1396 47 c 1,48,49
 1403 45 1403 45 1410.5 51.5 c 128,-1,50
 1418 58 1418 58 1424.5 67.5 c 128,-1,51
 1431 77 1431 77 1437 87 c 128,-1,52
 1443 97 1443 97 1446 103 c 1,53,-1
 1443 117 l 2,54,55
 1434 161 1434 161 1429.5 208.5 c 128,-1,56
 1425 256 1425 256 1425 305 c 0,57,58
 1425 359 1425 359 1430 412.5 c 128,-1,59
 1435 466 1435 466 1445.5 516 c 128,-1,60
 1456 566 1456 566 1471.5 611.5 c 128,-1,61
 1487 657 1487 657 1507 693 c 1,62,63
 1551 686 1551 686 1579.5 672 c 128,-1,64
 1608 658 1608 658 1625 635 c 128,-1,65
 1642 612 1642 612 1649 579 c 128,-1,66
 1656 546 1656 546 1656 501 c 0,67,68
 1656 458 1656 458 1648.5 412.5 c 128,-1,69
 1641 367 1641 367 1626.5 327 c 128,-1,70
 1612 287 1612 287 1591 257 c 128,-1,71
 1570 227 1570 227 1542 214 c 1,72,73
 1542 108 1542 108 1584 47 c 1,74,75
 1614 70 1614 70 1637.5 111 c 128,-1,76
 1661 152 1661 152 1677 216 c 1,77,78
 1682 218 1682 218 1685 218 c 128,-1,79
 1688 218 1688 218 1691 218 c 1,80,-1
 1691 196 l 2,81,82
 1691 167 1691 167 1685.5 134 c 128,-1,83
 1680 101 1680 101 1666.5 73 c 128,-1,84
 1653 45 1653 45 1629 26.5 c 128,-1,85
 1605 8 1605 8 1568 8 c 256,86,87
 1531 8 1531 8 1504 24 c 128,-1,88
 1477 40 1477 40 1460 69 c 1,89,90
 1454 46 1454 46 1437 27 c 128,-1,91
 1420 8 1420 8 1395 8 c 0,92,93
 1366 8 1366 8 1345 28.5 c 128,-1,94
 1324 49 1324 49 1315 70 c 1,95,96
 1312 59 1312 59 1305 50 c 128,-1,97
 1298 41 1298 41 1288.5 34.5 c 128,-1,98
 1279 28 1279 28 1268.5 23.5 c 128,-1,99
 1258 19 1258 19 1248 18 c 1,100,101
 1209 18 1209 18 1187.5 35.5 c 128,-1,102
 1166 53 1166 53 1158 80 c 1,103,104
 1145 60 1145 60 1123 40.5 c 128,-1,105
 1101 21 1101 21 1068 18 c 1,106,107
 1032 18 1032 18 1006.5 31.5 c 128,-1,108
 981 45 981 45 965 68.5 c 128,-1,109
 949 92 949 92 941.5 122.5 c 128,-1,110
 934 153 934 153 934 186 c 2,111,-1
 934 206 l 1,112,113
 935 233 935 233 938 262 c 128,-1,114
 941 291 941 291 946.5 318 c 128,-1,115
 952 345 952 345 959.5 368 c 128,-1,116
 967 391 967 391 976 406 c 1,117,118
 981 406 981 406 985 406.5 c 128,-1,119
 989 407 989 407 994 407 c 256,120,121
 999 407 999 407 1002.5 406.5 c 128,-1,122
 1006 406 1006 406 1011 406 c 1,123,124
 1006 415 1006 415 1002 425 c 128,-1,125
 998 435 998 435 995 446 c 1,126,127
 954 454 954 454 918.5 485 c 128,-1,128
 883 516 883 516 853 552 c 1,129,130
 846 558 846 558 831.5 561.5 c 128,-1,131
 817 565 817 565 800.5 568.5 c 128,-1,132
 784 572 784 572 768.5 576.5 c 128,-1,133
 753 581 753 581 743 590 c 0,134,135
 739 593 739 593 740 596.5 c 128,-1,136
 741 600 741 600 745 600 c 1,137,138
 746 599 746 599 765 597 c 128,-1,139
 784 595 784 595 808 592.5 c 128,-1,140
 832 590 832 590 854.5 588.5 c 128,-1,141
 877 587 877 587 884 587 c 1,142,143
 920 594 920 594 954.5 600 c 128,-1,144
 989 606 989 606 1017.5 612 c 128,-1,145
 1046 618 1046 618 1065 623.5 c 128,-1,146
 1084 629 1084 629 1090 635 c 1,147,148
 1096 657 1096 657 1112.5 669 c 128,-1,149
 1129 681 1129 681 1148 681 c 0,150,151
 1165 681 1165 681 1175 675 c 1,152,-1
 1192 681 l 1,153,154
 1194 680 1194 680 1194 680 c 1,155,-1
 1193 680 l 1,156,-1
 1189 661 l 1,157,-1
 1206 661 l 1,158,159
 1206 660 1206 660 1206 660 c 1,160,-1
 1192 643 l 1,0,1
612 397 m 1,161,162
 617 350 617 350 620 303.5 c 128,-1,163
 623 257 623 257 623 211 c 0,164,165
 623 115 623 115 610 27 c 128,-1,166
 597 -61 597 -61 569.5 -128 c 128,-1,167
 542 -195 542 -195 498.5 -235 c 128,-1,168
 455 -275 455 -275 395 -275 c 0,169,170
 369 -275 369 -275 352 -268 c 128,-1,171
 335 -261 335 -261 325 -246.5 c 128,-1,172
 315 -232 315 -232 311 -211.5 c 128,-1,173
 307 -191 307 -191 307 -164 c 0,174,175
 307 -140 307 -140 311.5 -117.5 c 128,-1,176
 316 -95 316 -95 322 -75 c 1,177,178
 346 -75 346 -75 373.5 -83.5 c 128,-1,179
 401 -92 401 -92 421 -112 c 1,180,181
 419 -130 419 -130 416.5 -151 c 128,-1,182
 414 -172 414 -172 414 -193 c 0,183,184
 414 -216 414 -216 419 -239 c 1,185,186
 450 -219 450 -219 467.5 -192 c 128,-1,187
 485 -165 485 -165 494.5 -131 c 128,-1,188
 504 -97 504 -97 509 -55.5 c 128,-1,189
 514 -14 514 -14 520 36 c 1,190,191
 516 30 516 30 508 24 c 128,-1,192
 500 18 500 18 490 18 c 0,193,194
 454 18 454 18 429 38 c 128,-1,195
 404 58 404 58 388 90 c 1,196,197
 383 75 383 75 374 59.5 c 128,-1,198
 365 44 365 44 351 31 c 128,-1,199
 337 18 337 18 318 10 c 128,-1,200
 299 2 299 2 274 2 c 0,201,202
 217 2 217 2 176.5 27 c 128,-1,203
 136 52 136 52 110.5 92.5 c 128,-1,204
 85 133 85 133 72.5 185 c 128,-1,205
 60 237 60 237 59 290 c 1,206,207
 59 351 59 351 66.5 411.5 c 128,-1,208
 74 472 74 472 91.5 527 c 128,-1,209
 109 582 109 582 137.5 630 c 128,-1,210
 166 678 166 678 207 714 c 1,211,212
 229 709 229 709 255.5 701 c 128,-1,213
 282 693 282 693 305 676 c 128,-1,214
 328 659 328 659 343 630 c 128,-1,215
 358 601 358 601 358 554 c 0,216,217
 358 518 358 518 340.5 488 c 128,-1,218
 323 458 323 458 295 434 c 1,219,220
 286 424 286 424 284.5 428 c 128,-1,221
 283 432 283 432 285 437 c 0,222,223
 287 444 287 444 287 450.5 c 128,-1,224
 287 457 287 457 287 465 c 0,225,226
 287 484 287 484 284 504.5 c 128,-1,227
 281 525 281 525 276.5 543 c 128,-1,228
 272 561 272 561 266.5 575 c 128,-1,229
 261 589 261 589 256 595 c 1,230,231
 242 583 242 583 230 553.5 c 128,-1,232
 218 524 218 524 209 483.5 c 128,-1,233
 200 443 200 443 195 395 c 128,-1,234
 190 347 190 347 190 298 c 0,235,236
 190 257 190 257 194.5 217 c 128,-1,237
 199 177 199 177 208.5 142.5 c 128,-1,238
 218 108 218 108 233 81 c 128,-1,239
 248 54 248 54 270 38 c 1,240,241
 289 44 289 44 305 57 c 128,-1,242
 321 70 321 70 333.5 86 c 128,-1,243
 346 102 346 102 354.5 118 c 128,-1,244
 363 134 363 134 369 146 c 1,245,246
 358 181 358 181 354.5 220 c 128,-1,247
 351 259 351 259 351 299 c 0,248,249
 351 337 351 337 356 363 c 128,-1,250
 361 389 361 389 370 406 c 1,251,252
 377 404 377 404 389.5 401.5 c 128,-1,253
 402 399 402 399 415.5 395 c 128,-1,254
 429 391 429 391 442 384.5 c 128,-1,255
 455 378 455 378 465 369 c 1,256,257
 462 318 462 318 462 270 c 0,258,259
 462 216 462 216 467.5 165 c 128,-1,260
 473 114 473 114 488 66 c 1,261,262
 499 69 499 69 503 78.5 c 128,-1,263
 507 88 507 88 509 93 c 0,264,265
 515 121 515 121 517.5 150.5 c 128,-1,266
 520 180 520 180 520 209 c 0,267,268
 520 243 520 243 517 277 c 128,-1,269
 514 311 514 311 510.5 341.5 c 128,-1,270
 507 372 507 372 502.5 398 c 128,-1,271
 498 424 498 424 495 444 c 1,272,273
 508 445 508 445 524.5 442 c 128,-1,274
 541 439 541 439 557 432.5 c 128,-1,275
 573 426 573 426 587.5 416.5 c 128,-1,276
 602 407 602 407 612 397 c 1,161,162
628 415 m 1,277,278
 668 413 668 413 692 407 c 1,279,280
 718 402 718 402 735 383 c 1,281,282
 746 363 746 363 755 334 c 128,-1,283
 764 305 764 305 767 265 c 1,284,285
 784 297 784 297 795.5 321 c 128,-1,286
 807 345 807 345 814 365 c 1,287,288
 814 379 814 379 819 398 c 128,-1,289
 824 417 824 417 829 429 c 1,290,291
 861 426 861 426 887 416.5 c 128,-1,292
 913 407 913 407 924 388 c 1,293,294
 919 366 919 366 917 340.5 c 128,-1,295
 915 315 915 315 915 289 c 0,296,297
 915 272 915 272 916.5 256 c 128,-1,298
 918 240 918 240 920 226 c 1,299,300
 900 221 900 221 888 221 c 0,301,302
 835 221 835 221 824 286 c 1,303,304
 816 266 816 266 800 244.5 c 128,-1,305
 784 223 784 223 777 195 c 1,306,307
 777 169 777 169 775.5 134 c 128,-1,308
 774 99 774 99 767 77 c 0,309,310
 759 50 759 50 742 31 c 128,-1,311
 725 12 725 12 697 12 c 0,312,313
 694 12 694 12 690.5 12 c 128,-1,314
 687 12 687 12 683 13 c 1,315,316
 680 58 680 58 677.5 111.5 c 128,-1,317
 675 165 675 165 669 219.5 c 128,-1,318
 663 274 663 274 653.5 325 c 128,-1,319
 644 376 644 376 628 415 c 1,277,278
1246 55 m 1,320,321
 1258 66 1258 66 1274 85 c 128,-1,322
 1290 104 1290 104 1292 125 c 1,323,324
 1283 163 1283 163 1279.5 204 c 128,-1,325
 1276 245 1276 245 1276 278 c 0,326,327
 1276 293 1276 293 1276.5 305.5 c 128,-1,328
 1277 318 1277 318 1278 327 c 1,329,330
 1270 317 1270 317 1262 297 c 128,-1,331
 1254 277 1254 277 1248 251 c 128,-1,332
 1242 225 1242 225 1238.5 195.5 c 128,-1,333
 1235 166 1235 166 1235 137 c 0,334,335
 1235 93 1235 93 1246 55 c 1,320,321
1540 261 m 1,336,337
 1553 279 1553 279 1562.5 306.5 c 128,-1,338
 1572 334 1572 334 1578.5 365.5 c 128,-1,339
 1585 397 1585 397 1588 430 c 128,-1,340
 1591 463 1591 463 1591 494 c 0,341,342
 1591 536 1591 536 1585 566 c 1,343,344
 1577 536 1577 536 1570 499 c 128,-1,345
 1563 462 1563 462 1557 422 c 128,-1,346
 1551 382 1551 382 1546.5 341 c 128,-1,347
 1542 300 1542 300 1540 261 c 1,336,337
1063 337 m 1,348,349
 1049 295 1049 295 1042.5 248.5 c 128,-1,350
 1036 202 1036 202 1036 154 c 1,351,352
 1047 155 1047 155 1055.5 166 c 128,-1,353
 1064 177 1064 177 1069.5 192.5 c 128,-1,354
 1075 208 1075 208 1077.5 227.5 c 128,-1,355
 1080 247 1080 247 1080 265 c 0,356,357
 1080 287 1080 287 1074 306.5 c 128,-1,358
 1068 326 1068 326 1063 337 c 1,348,349
1049 399 m 1,359,360
 1035 418 1035 418 1024 444 c 1,361,-1
 1009 444 l 1,362,-1
 1021 405 l 1,363,364
 1029 403 1029 403 1035.5 402 c 128,-1,365
 1042 401 1042 401 1049 399 c 1,359,360
EndSplineSet
EndChar
